<svg xmlns="http://www.w3.org/2000/svg" width="32" height="32" viewBox="0 0 32 32">
    <g fill="none" fill-rule="evenodd">
        <path fill="#A7A8A9" d="M16 32c8.837 0 16-7.165 16-16 0-8.836-7.163-16-16-16C7.162 0 0 7.164 0 16c0 8.835 7.162 16 16 16"/>
        <g fill="#FFF">
            <path d="M16 8.882c2.318 0 2.593.008 3.509.05.846.039 1.306.18 1.612.3.405.157.695.345.998.649.304.303.492.593.65.998.119.306.26.766.299 1.612.042.916.05 1.19.05 3.509 0 2.318-.008 2.593-.05 3.509-.039.846-.18 1.306-.3 1.612a2.69 2.69 0 0 1-.649.998 2.69 2.69 0 0 1-.998.65c-.306.119-.766.26-1.612.299-.916.042-1.19.05-3.509.05s-2.593-.008-3.509-.05c-.846-.039-1.306-.18-1.612-.3a2.69 2.69 0 0 1-.998-.649 2.69 2.69 0 0 1-.65-.998c-.119-.306-.26-.766-.299-1.612-.042-.916-.05-1.19-.05-3.509 0-2.318.008-2.593.05-3.509.039-.846.18-1.306.3-1.612a2.69 2.69 0 0 1 .649-.998 2.69 2.69 0 0 1 .998-.65c.306-.119.766-.26 1.612-.299.916-.042 1.19-.05 3.509-.05m0-1.565c-2.358 0-2.654.01-3.58.052-.924.042-1.555.19-2.108.404a4.256 4.256 0 0 0-1.538 1.001c-.482.483-.78.967-1.001 1.538-.215.553-.362 1.184-.404 2.108-.042.926-.052 1.222-.052 3.58s.01 2.654.052 3.58c.042.924.19 1.555.404 2.108.222.57.519 1.055 1.001 1.538.483.482.967.78 1.538 1.001.553.215 1.184.362 2.108.404.926.042 1.222.052 3.58.052s2.654-.01 3.58-.052c.924-.042 1.555-.19 2.108-.404a4.256 4.256 0 0 0 1.538-1.001c.482-.483.78-.967 1.001-1.538.215-.553.362-1.184.404-2.108.042-.926.052-1.222.052-3.58s-.01-2.654-.052-3.58c-.042-.924-.19-1.555-.404-2.108a4.256 4.256 0 0 0-1.001-1.538 4.256 4.256 0 0 0-1.538-1.001c-.553-.215-1.184-.362-2.108-.404-.926-.042-1.222-.052-3.58-.052"/>
            <path d="M16 11.541a4.459 4.459 0 1 0 0 8.918 4.459 4.459 0 0 0 0-8.918zm0 7.353a2.894 2.894 0 1 1 0-5.788 2.894 2.894 0 0 1 0 5.788zM21.677 11.365a1.042 1.042 0 1 1-2.084 0 1.042 1.042 0 0 1 2.084 0"/>
        </g>
    </g>
</svg>
