<svg xmlns="http://www.w3.org/2000/svg" width="150" height="50" viewBox="0 0 150 50">
    <g fill="none" fill-rule="evenodd">
        <path fill="#008146" d="M26.756 8.981c1.83-3.282 4.31-5.52 7.424-6.734 1.905-.758 3.773-1.082 5.567-1.011 1.918.084 4.023.301 6.003 1.347 2.154 1.131 3.637 2.863 4.733 4.486 1.108 1.612 1.793 3.667 2.081 6.158.274 2.477.086 4.641-.55 6.493a28.22 28.22 0 0 1-2.377 5.134c-.935 1.576-2.181 3.14-3.714 4.703-.907.914-2.377 2.284-4.432 4.113-.935.841-2.417 2.128-4.472 3.872-1.806 1.527-3.126 2.694-3.998 3.511a37.784 37.784 0 0 0-6.302 7.468 37.186 37.186 0 0 0-6.265-7.48c-.872-.805-2.205-1.972-3.998-3.499a263.444 263.444 0 0 1-4.472-3.872c-2.054-1.829-3.537-3.199-4.434-4.125-1.532-1.551-2.764-3.126-3.711-4.702a28.46 28.46 0 0 1-2.379-5.135c-.635-1.84-.822-4.004-.536-6.494.274-2.478.959-4.533 2.068-6.157 1.096-1.623 2.242-2.97 4.396-4.113 1.98-1.033 4.422-1.624 6.34-1.708 1.794-.083 3.649.253 5.567.999 3.114 1.214 5.593 3.464 7.461 6.746"/>
        <path fill="#FCD71F" d="M14.264 2.018c-.167 0-.333.004-.499.012-1.959.086-4.261.706-6.01 1.618C5.805 4.684 4.738 5.89 3.65 7.502c-1.026 1.504-1.677 3.454-1.937 5.8-.269 2.344-.101 4.411.498 6.146a27.734 27.734 0 0 0 2.311 4.989c.927 1.543 2.136 3.074 3.594 4.55.846.874 2.242 2.172 4.396 4.089.878.78 2.363 2.083 4.458 3.86 1.792 1.527 3.145 2.711 4.023 3.522a38.372 38.372 0 0 1 5.73 6.622 38.88 38.88 0 0 1 5.761-6.612c.932-.874 2.325-2.098 4.022-3.533 1.93-1.637 3.47-2.971 4.453-3.856 1.943-1.728 3.463-3.139 4.401-4.082 1.503-1.533 2.714-3.065 3.594-4.548.914-1.533 1.669-3.165 2.311-4.993.596-1.735.768-3.803.51-6.142-.274-2.363-.929-4.314-1.947-5.795-1.355-2.007-2.767-3.35-4.447-4.232-1.828-.966-3.805-1.175-5.669-1.257a11.073 11.073 0 0 0-.45-.009c-1.57 0-3.181.324-4.788.965-2.94 1.145-5.301 3.292-7.024 6.382l-.687 1.231-.698-1.225c-1.795-3.154-4.104-5.247-7.059-6.399-1.632-.635-3.227-.957-4.742-.957zM26.714 50l-.667-1.054a36.548 36.548 0 0 0-6.132-7.321c-.862-.796-2.199-1.966-3.974-3.478a264.989 264.989 0 0 1-4.484-3.883c-2.186-1.945-3.608-3.269-4.477-4.166-1.541-1.56-2.828-3.192-3.822-4.846A29.39 29.39 0 0 1 .71 19.97c-.678-1.965-.871-4.267-.576-6.846.288-2.604 1.029-4.797 2.202-6.515 1.188-1.76 2.441-3.178 4.68-4.366 1.945-1.016 4.502-1.705 6.677-1.8 1.871-.087 3.869.266 5.889 1.051 2.891 1.127 5.297 3.129 7.168 5.959 1.835-2.815 4.233-4.812 7.141-5.946C35.856.725 37.85.367 39.779.442c2.052.091 4.238.327 6.342 1.439 1.894.994 3.536 2.546 5.02 4.743 1.163 1.691 1.908 3.884 2.213 6.511.284 2.578.086 4.879-.588 6.843a29.21 29.21 0 0 1-2.447 5.283c-.944 1.591-2.232 3.224-3.828 4.852-.964.97-2.509 2.404-4.472 4.15-.991.892-2.544 2.237-4.486 3.885-1.678 1.418-3.05 2.623-3.969 3.485a37.225 37.225 0 0 0-6.177 7.318L26.714 50z"/>
        <path fill="#008146" d="M64.64 10.595c-1.248 0-1.864 1.297-1.864 2.412 0 1.281.616 2.446 1.864 2.446 1.281 0 1.88-1.198 1.88-2.363 0-1.164-.566-2.495-1.88-2.495zm4.276 6.156c0 2.878-1.88 4.326-4.609 4.326-.982 0-3.777-.482-3.777-1.797 0-.449.5-1.048.965-1.048.766 0 1.614.748 2.995.748 1.165 0 2.03-.682 2.03-1.896v-.566h-.033c-.499.732-1.315 1.131-2.413 1.131-2.512 0-3.693-2.213-3.693-4.592 0-2.412 1.53-4.659 3.943-4.659.815 0 1.747.366 2.196 1.098.15-.632.533-.998 1.198-.998.699 0 1.198.533 1.198 1.331v6.922zM70.331 9.696c0-.799.632-1.198 1.231-1.198.633 0 1.165.233 1.165.998h.033c.45-.665.932-.998 1.681-.998.582 0 1.164.416 1.164 1.281 0 .782-.715.832-1.431 1.165-.715.333-1.447.649-1.447 1.597v3.677c0 .799-.499 1.331-1.198 1.331s-1.198-.532-1.198-1.331V9.696M82.094 12.225c-.132-1.048-.798-1.83-1.913-1.83-1.064 0-1.78.815-1.897 1.83h3.81zm-3.76 1.597c.167 1.182 1.148 1.731 2.263 1.731 1.231 0 2.08-.965 2.712-.965.516 0 .982.516.982 1.031 0 1.032-2.13 2.03-3.91 2.03-2.695 0-4.492-1.963-4.492-4.609 0-2.429 1.763-4.642 4.292-4.642 2.596 0 4.31 2.363 4.31 4.359 0 .716-.316 1.065-1.049 1.065h-5.108zM91.529 12.225c-.133-1.048-.799-1.83-1.913-1.83-1.065 0-1.781.815-1.897 1.83h3.81zm-3.76 1.597c.166 1.182 1.148 1.731 2.263 1.731 1.231 0 2.08-.965 2.712-.965.516 0 .981.516.981 1.031 0 1.032-2.129 2.03-3.91 2.03-2.695 0-4.492-1.963-4.492-4.609 0-2.429 1.764-4.642 4.293-4.642 2.595 0 4.309 2.363 4.309 4.359 0 .716-.316 1.065-1.048 1.065h-5.108zM95.024 9.829c0-.798.499-1.331 1.197-1.331.616 0 1.015.333 1.099.882.465-.649 1.181-.982 2.313-.982 1.88 0 3.277 1.198 3.277 3.228v4.592c0 .799-.499 1.331-1.197 1.331-.699 0-1.198-.532-1.198-1.331v-4.176c0-1.114-.699-1.647-1.564-1.647-.982 0-1.531.715-1.531 1.647v4.176c0 .799-.499 1.331-1.199 1.331-.698 0-1.197-.532-1.197-1.331V9.829M104.359 5.969c0-.799.499-1.331 1.198-1.331.698 0 1.198.532 1.198 1.331V9.23h.033c.499-.615 1.431-.832 2.179-.832 1.88 0 3.279 1.198 3.279 3.228v4.592c0 .799-.5 1.331-1.199 1.331-.698 0-1.198-.532-1.198-1.331v-4.176c0-1.114-.698-1.647-1.564-1.647-.981 0-1.53.715-1.53 1.647v4.176c0 .799-.5 1.331-1.198 1.331-.699 0-1.198-.532-1.198-1.331V5.969M119.55 12.225c-.133-1.048-.798-1.83-1.913-1.83-1.065 0-1.78.815-1.897 1.83h3.81zm-3.76 1.597c.167 1.182 1.148 1.731 2.263 1.731 1.231 0 2.079-.965 2.712-.965.516 0 .982.516.982 1.031 0 1.032-2.13 2.03-3.91 2.03-2.696 0-4.493-1.963-4.493-4.609 0-2.429 1.764-4.642 4.293-4.642 2.595 0 4.309 2.363 4.309 4.359 0 .716-.316 1.065-1.048 1.065h-5.108zM127.155 15.453c1.247 0 1.847-1.264 1.847-2.413 0-1.148-.583-2.445-1.847-2.445-1.315 0-1.897 1.297-1.897 2.445 0 1.149.599 2.413 1.897 2.413zm4.242.532c0 .616 0 1.564-1.147 1.564-.699 0-.982-.382-1.149-1.014-.615.732-1.364 1.114-2.279 1.114-2.246 0-3.96-1.913-3.96-4.609 0-2.629 1.763-4.642 3.96-4.642.882 0 1.747.35 2.279 1.098.067-.582.566-.998 1.149-.998 1.147 0 1.147.948 1.147 1.564v5.923zM132.812 9.696c0-.799.633-1.198 1.232-1.198.632 0 1.165.233 1.165.998h.033c.449-.665.932-.998 1.68-.998.582 0 1.164.416 1.164 1.281 0 .782-.715.832-1.431 1.165-.715.333-1.446.649-1.446 1.597v3.677c0 .799-.5 1.331-1.199 1.331-.698 0-1.198-.532-1.198-1.331V9.696M140.473 10.694h-.533c-.649 0-1.048-.399-1.048-1.048 0-.599.45-1.048 1.048-1.048h.533V7.167c0-.799.499-1.331 1.198-1.331s1.198.532 1.198 1.331v1.431h.682c.615 0 1.148.283 1.148 1.048 0 .749-.533 1.048-1.148 1.048h-.682v5.524c0 .799-.499 1.331-1.198 1.331s-1.198-.532-1.198-1.331v-5.524M147.433 5.466h.282c.321 0 .593-.118.593-.419 0-.215-.155-.429-.593-.429a1.98 1.98 0 0 0-.282.02v.828zm0 1.35h-.389v-2.44c.204-.03.398-.059.69-.059.37 0 .613.078.759.185.146.107.223.272.223.505 0 .321-.213.515-.476.593v.021c.214.038.36.232.408.593.059.378.117.524.156.602h-.409c-.058-.078-.116-.302-.165-.623-.058-.31-.214-.428-.525-.428h-.272v1.051zm.408-3.122c-.962 0-1.75.827-1.75 1.849 0 1.04.788 1.857 1.76 1.857.973.009 1.75-.817 1.75-1.848 0-1.031-.777-1.858-1.75-1.858h-.01zm.01-.34c1.196 0 2.149.973 2.149 2.189 0 1.234-.953 2.197-2.159 2.197-1.196 0-2.168-.963-2.168-2.197 0-1.216.972-2.189 2.168-2.189h.01zM62.615 25.306c0-.469.275-.761.712-.761.436 0 .711.292.711.761v1.86h.583c.469 0 .712.227.712.615s-.243.615-.712.615h-.583v6.713c0 .469-.275.761-.711.761-.437 0-.712-.292-.712-.761v-6.713h-.583c-.469 0-.711-.227-.711-.615s.242-.615.711-.615h.583v-1.86M66.368 27.829c0-.469.275-.76.712-.76.436 0 .711.291.711.76v.729h.033c.323-.664 1.116-1.489 1.941-1.489.502 0 .793.324.793.728 0 .404-.291.664-.89.777-.841.145-1.877.776-1.877 2.442v4.093c0 .469-.275.761-.711.761-.437 0-.712-.292-.712-.761v-7.28M74.877 34.64c1.748 0 2.362-1.715 2.362-3.17 0-1.456-.614-3.171-2.362-3.171-1.747 0-2.362 1.715-2.362 3.171 0 1.455.615 3.17 2.362 3.17zm3.705.534a.66.66 0 0 1-.664.696c-.291 0-.663-.194-.663-.696v-.598h-.032c-.615.873-1.424 1.294-2.346 1.294-2.426 0-3.785-2.12-3.785-4.4 0-2.282 1.359-4.401 3.785-4.401.987 0 1.683.421 2.346 1.149h.032v-.453c0-.502.372-.696.663-.696a.66.66 0 0 1 .664.696v7.409zM79.746 28.315c-.097-.259-.145-.421-.145-.583 0-.42.307-.663.647-.663.469 0 .631.227.744.55l1.958 5.953h.032l1.958-5.953c.113-.323.274-.55.744-.55.34 0 .647.243.647.663 0 .162-.048.324-.146.583l-2.475 6.94c-.145.421-.291.615-.744.615s-.599-.194-.744-.615l-2.476-6.94M92.98 30.952c0-1.23-.712-2.653-2.281-2.653-1.763-.065-2.395 1.342-2.443 2.653h4.724zm-4.724 1.067c0 1.473.938 2.621 2.54 2.621 1.892 0 2.378-1.165 2.912-1.165.259 0 .517.227.517.631 0 .696-1.763 1.764-3.445 1.764-2.751 0-3.948-2.12-3.948-4.4 0-2.33 1.456-4.401 3.867-4.401 2.345 0 3.705 2.119 3.705 4.19 0 .502-.179.76-.793.76h-5.355zM97.186 35.109c0 .469-.276.761-.712.761-.437 0-.712-.292-.712-.761V24.044c0-.469.275-.76.712-.76.436 0 .712.291.712.76v11.065"/>
    </g>
</svg>
