<svg xmlns="http://www.w3.org/2000/svg" width="100" height="100" viewBox="0 0 100 100">
    <g fill="#A7A8A9" fill-rule="nonzero">
        <path d="M58.566 33.891c.982-1.12 1.591-2.554 1.591-4.165 0-3.517-2.868-6.385-6.385-6.385s-6.385 2.868-6.385 6.385c0 1.591.61 3.045 1.591 4.165a12.426 12.426 0 0 0-3.36 2.161 18.323 18.323 0 0 0-2.828-1.277 8.9 8.9 0 0 0 3.065-6.719c0-4.911-3.989-8.9-8.92-8.9a8.892 8.892 0 0 0-8.9 8.9c0 2.672 1.199 5.069 3.065 6.72-.982.353-1.925.765-2.829 1.276a12.13 12.13 0 0 0-3.36-2.16c.983-1.12 1.592-2.575 1.592-4.166 0-3.517-2.868-6.385-6.385-6.385s-6.385 2.868-6.385 6.385c0 1.591.609 3.045 1.591 4.165-4.302 1.867-7.308 6.13-7.308 11.1h3.222c0-4.911 3.988-8.9 8.88-8.9 1.965 0 3.87.669 5.403 1.847-3.831 3.242-6.268 8.075-6.268 13.478h3.222c0-7.977 6.484-14.46 14.46-14.46 7.977 0 14.46 6.483 14.46 14.46h3.222c0-5.403-2.436-10.236-6.248-13.478a8.892 8.892 0 0 1 5.403-1.846c4.892 0 8.88 3.988 8.88 8.9h3.222c0-4.971-3.006-9.254-7.308-11.1zM20.138 32.89a3.174 3.174 0 0 1-3.164-3.163 3.161 3.161 0 0 1 3.164-3.163 3.161 3.161 0 0 1 3.163 3.163 3.161 3.161 0 0 1-3.163 3.163zm16.817.865c-3.144 0-5.698-2.574-5.698-5.698a5.702 5.702 0 0 1 5.698-5.697 5.702 5.702 0 0 1 5.697 5.697 5.702 5.702 0 0 1-5.697 5.698zm16.817-.865a3.174 3.174 0 0 1-3.163-3.163 3.161 3.161 0 0 1 3.163-3.163 3.161 3.161 0 0 1 3.163 3.163 3.161 3.161 0 0 1-3.163 3.163z"/>
        <path d="M96.503 80.61l-20.61-20.609-3.044 3.045-5.344-5.343a36.77 36.77 0 0 0 6.405-20.747C73.91 16.583 57.328.001 36.955.001 16.582.001 0 16.583 0 36.956c0 20.373 16.582 36.955 36.955 36.955A36.62 36.62 0 0 0 57.7 67.506l5.344 5.344L60 75.895l20.609 20.61a11.192 11.192 0 0 0 7.957 3.3c3.006 0 5.835-1.18 7.957-3.3 4.38-4.382 4.38-11.514-.02-15.895zm-38.33-17.465a33.516 33.516 0 0 1-21.218 7.544c-18.605 0-33.733-15.128-33.733-33.733 0-18.605 15.128-33.733 33.733-33.733 18.605 0 33.733 15.128 33.733 33.733 0 8.035-2.83 15.422-7.545 21.218-.078.118-.176.216-.255.334a32.97 32.97 0 0 1-4.381 4.381 2.145 2.145 0 0 1-.334.256zm36.07 31.1a7.998 7.998 0 0 1-5.677 2.357 7.998 7.998 0 0 1-5.678-2.357l-18.33-18.33 3.045-3.045-7.269-7.27c.079-.078.157-.157.236-.216a40.986 40.986 0 0 0 2.18-1.964c.217-.216.452-.433.668-.668a40.608 40.608 0 0 0 1.965-2.161c.079-.079.157-.158.216-.236l7.27 7.269 3.045-3.045 18.33 18.33c3.123 3.104 3.123 8.192 0 11.336z"/>
        <path d="M83.457 85.624l2.278-2.279 2.278 2.279-2.278 2.278zM78.92 81.073l2.277-2.28 2.28 2.278-2.278 2.28zM74.384 76.537l2.278-2.278 2.278 2.278-2.278 2.278z"/>
    </g>
</svg>
