<?xml version="1.0" encoding="utf-8"?>
<!-- Generator: Adobe Illustrator 16.0.0, SVG Export Plug-In . SVG Version: 6.00 Build 0)  -->
<!DOCTYPE svg PUBLIC "-//W3C//DTD SVG 1.1//EN" "http://www.w3.org/Graphics/SVG/1.1/DTD/svg11.dtd">
<svg version="1.1" id="Layer_1" xmlns="http://www.w3.org/2000/svg" xmlns:xlink="http://www.w3.org/1999/xlink" x="0px" y="0px"
	 width="12px" height="12px" viewBox="12 12 12 12" enable-background="new 12 12 12 12" xml:space="preserve">
<path fill="#6D6E70" d="M20.544,15.456C19.87,14.779,18.955,14.398,18,14.4V18l-2.544,2.544c1.404,1.404,3.685,1.404,5.094,0
	c1.403-1.403,1.403-3.679,0-5.083C20.548,15.46,20.546,15.458,20.544,15.456z M18,12c-3.313,0-6,2.688-6,6c0,3.312,2.688,6,6,6
	c3.312,0,6-2.688,6-6C24,14.688,21.312,12,18,12z M18,22.8c-2.652,0-4.8-2.147-4.8-4.8s2.147-4.8,4.8-4.8s4.8,2.147,4.8,4.8
	S20.652,22.8,18,22.8z"/>
</svg>
