<svg xmlns="http://www.w3.org/2000/svg" width="24" height="24" viewBox="0 0 24 24">
    <path fill="#6D6E70" fill-rule="evenodd" d="M21 4.5c-1.11-.35-2.33-.5-3.5-.5-1.95 0-4.05.4-5.5 1.5C10.55 4.4 8.45 4 6.5 4 4.55 4 2.45 4.4 1 5.5v14.65c0 .25.25.5.5.5.1 0 .15-.05.25-.05 1.35-.65 3.3-1.1 4.75-1.1 1.95 0 4.05.4 5.5 1.5 1.35-.85 3.8-1.5 5.5-1.5 1.65 0 3.35.3 4.75 1.05.1.05.15.05.25.05.25 0 .5-.25.5-.5V5.5c-.6-.45-1.25-.75-2-1zM21 18c-1.1-.35-2.3-.5-3.5-.5-1.7 0-4.15.65-5.5 1.5V7.5c1.35-.85 3.8-1.5 5.5-1.5 1.2 0 2.4.15 3.5.5V18z"/>
</svg>
