<svg xmlns="http://www.w3.org/2000/svg" width="48" height="50" viewBox="0 0 48 50">
    <path fill="#8AC53F" fill-rule="nonzero" d="M4.768 16.633a.833.833 0 0 1-.567-1.033C6.874 6.415 15.43 0 25.007 0c1.798 0 3.585.22 5.311.656.436.11.706.546.61.986-.216.988.148 1.567.502 2.126.24.383.489.778.489 1.263 0 3.413-.764 5.143-2.27 5.143-.642 0-2.36.814-2.932 1.883-.223.415-.213.765.033 1.133.453.679.837 1.423 1.176 2.08.367.71.981 1.9 1.29 1.972.538-.265 1.212-1.602 1.659-2.487.76-1.51 1.352-2.718 2.402-2.654 2.032.09 2.828 1.813 3.409 3.071.277.601.592 1.282.906 1.439.592.292 3.92.017 6.514-.897A20.134 20.134 0 0 0 32.58 3.151a.833.833 0 1 1 .632-1.542c6.21 2.543 10.96 7.922 12.71 14.388a.833.833 0 0 1-.478.985c-2.56 1.086-7.19 1.824-8.599 1.12-.836-.419-1.262-1.34-1.674-2.231-.559-1.212-.972-1.977-1.818-2.092-.258.274-.694 1.138-.99 1.726-.674 1.335-1.37 2.717-2.343 3.203-.305.152-.586.22-.847.22-1.234 0-2.02-1.521-2.728-2.893-.335-.648-.681-1.318-1.083-1.92-.586-.88-.627-1.89-.116-2.845.834-1.556 3.05-2.762 4.401-2.762-.006-.002.604-.489.604-3.477-.015-.028-.14-.228-.233-.374-.333-.529-.85-1.351-.82-2.55a20.081 20.081 0 0 0-4.192-.44c-8.84 0-16.738 5.92-19.206 14.398a.832.832 0 0 1-1.033.568zM35.003 22.1c.692-.197 1.64-.468 2.588-.468.989 0 1.786.297 2.372.882.43.431.646.896.64 1.383-.008.824-.61 1.398-1.244 2.007-.547.524-1.113 1.065-1.35 1.774-.6 1.798-2.344 2.435-3.657 2.435-.864 0-1.605-.245-2.033-.674-.622-.622-2.022-1.321-3.375-1.998-.954-.478-1.152-1.253-1.017-1.82.19-.807 1.04-1.39 2.023-1.39.404 0 .8.094 1.177.282.234-.006.601-.452.805-.7.532-.651 1.262-1.543 2.414-1.543.087-.007.416-.102.657-.17zm3.934 1.774c-.005 0-.037-.065-.153-.182-.265-.265-.655-.394-1.192-.394-.716 0-1.5.224-2.131.404-.475.136-.82.235-1.115.235-.362 0-.75.474-1.125.931-.514.628-1.096 1.34-2.019 1.34-.275 0-.551-.069-.82-.204-.256-.127-.546-.122-.702-.058l.009.004c1.54.77 2.994 1.497 3.81 2.312.063.056.368.185.853.185.275 0 1.665-.063 2.076-1.296.367-1.1 1.15-1.85 1.779-2.451.275-.264.69-.662.73-.826zm7.53-5.206c.137.992.206 2 .206 2.999 0 11.946-9.72 21.666-21.666 21.666a.84.84 0 0 1-.445-.128c-2.199-1.387-7.347-4.636-5.35-9.295 1.76-4.109.397-5.385-.336-6.07a8.46 8.46 0 0 1-.206-.197c-.107-.106-.282-.211-.468-.322-.718-.43-1.92-1.152-1.17-3.403.334-1.003.819-1.515 1.208-1.928.525-.555.904-.957.904-2.837 0-.722-.3-1.205-.917-1.478-.835-.37-1.95-.202-2.389.197-.153.139-.126.216-.1.299.844 2.527-.679 5.712-3.88 8.113-1.199.9-2.414.86-3.251-.106-1.169-1.346-1.274-4.28-.318-5.773-.61-.187-1.808-.35-3.218-.348-.044.52-.064 1.031-.064 1.61a19.954 19.954 0 0 0 15.185 19.417.832.832 0 1 1-.4 1.617A21.617 21.617 0 0 1 3.34 21.667c0-.91.045-1.665.15-2.527a.835.835 0 0 1 .79-.73c.854-.04 5.16-.159 5.835 1.372.206.466.084.988-.325 1.397-.611.61-.669 3.05.076 3.907.12.137.32.368.991-.135 2.537-1.902 3.894-4.474 3.3-6.253-.251-.756-.047-1.507.56-2.059.971-.881 2.809-1.096 4.184-.488 1.214.536 1.91 1.63 1.91 3.002 0 2.356-.59 3.167-1.36 3.982-.333.353-.621.657-.838 1.31-.327.982-.163 1.08.447 1.446.25.15.536.322.788.574l.166.158c.883.826 2.95 2.759.73 7.945-1.238 2.886 1.54 5.205 4.503 7.097 10.918-.13 19.76-9.05 19.76-19.998 0-.922-.065-1.854-.191-2.77a.834.834 0 0 1 1.65-.229zm-7.535 21.723a.834.834 0 0 1 .996 1.337c-4.113 3.065-8.97 4.74-14.088 4.905v2.534a.834.834 0 0 1-1.667 0v-2.521C10.773 46.203.007 35.173.007 21.666a.834.834 0 0 1 1.666 0C1.673 34.534 12.141 45 25.006 45c5.064 0 9.88-1.594 13.926-4.61zm-13.288-6.627c.35 0 .674.131.913.368.48.481.891 1.14 1.099 1.764.308.922.173 1.736-.38 2.289-.499.497-1.237.783-2.027.783s-1.528-.286-2.026-.783c-.528-.528-.631-1.31-.284-2.15.445-1.074 1.665-2.27 2.705-2.27zm.453 3.242c.079-.078.07-.308-.022-.583a3.063 3.063 0 0 0-.546-.945c-.22.119-.626.454-.913.928-.221.365-.222.573-.21.609.36.35 1.321.36 1.691-.01z"/>
</svg>
