<svg xmlns="http://www.w3.org/2000/svg" width="134" height="34" viewBox="0 0 134 34">
    <g fill="none" fill-rule="evenodd">
        <path fill="#007A41" d="M17.836 6.017c1.21-2.202 2.848-3.703 4.907-4.517 1.26-.509 2.494-.727 3.68-.679 1.268.057 2.659.202 3.968.904 1.423.759 2.404 1.92 3.128 3.01.733 1.081 1.185 2.46 1.376 4.13.18 1.662.057 3.114-.364 4.356a19.1 19.1 0 0 1-1.571 3.445c-.618 1.056-1.442 2.106-2.455 3.155-.6.612-1.572 1.532-2.93 2.758-.617.565-1.597 1.428-2.956 2.598a73.945 73.945 0 0 0-2.642 2.356 25.234 25.234 0 0 0-4.166 5.01 24.834 24.834 0 0 0-4.141-5.018 96.557 96.557 0 0 0-2.643-2.348 169.82 169.82 0 0 1-2.955-2.598c-1.358-1.226-2.338-2.146-2.93-2.766-1.014-1.041-1.828-2.098-2.454-3.155a19.198 19.198 0 0 1-1.573-3.445C.695 11.98.572 10.527.761 8.857c.18-1.662.634-3.041 1.367-4.13.724-1.089 1.482-1.993 2.906-2.76C6.343 1.274 7.956.878 9.224.821c1.186-.055 2.413.17 3.68.67 2.058.815 3.697 2.324 4.932 4.526"/>
        <path fill="#FFE32C" d="M9.58 1.45c-.11 0-.218.003-.327.008-1.281.058-2.786.47-3.928 1.074-1.27.684-1.966 1.484-2.677 2.551-.669.995-1.093 2.288-1.263 3.844-.176 1.558-.067 2.929.324 4.078a18.655 18.655 0 0 0 1.519 3.328c.608 1.027 1.403 2.048 2.36 3.032.559.585 1.48 1.454 2.901 2.738.577.52 1.556 1.392 2.945 2.588a97.537 97.537 0 0 1 2.662 2.366 25.77 25.77 0 0 1 3.718 4.335 26.092 26.092 0 0 1 3.738-4.329 73.758 73.758 0 0 1 2.662-2.372 146.847 146.847 0 0 0 2.941-2.585c1.283-1.159 2.286-2.103 2.905-2.735.987-1.022 1.782-2.043 2.36-3.03a18.592 18.592 0 0 0 1.519-3.33c.388-1.15.5-2.522.331-4.076-.178-1.568-.606-2.86-1.269-3.84-.886-1.331-1.807-2.221-2.902-2.805-1.191-.639-2.484-.777-3.704-.832a7.628 7.628 0 0 0-.293-.006c-1.024 0-2.076.216-3.127.64-1.92.76-3.463 2.184-4.59 4.236l-.544.988-.551-.984c-1.175-2.094-2.684-3.483-4.614-4.247-1.067-.42-2.109-.634-3.096-.634zm8.227 32.28l-.527-.846a24.36 24.36 0 0 0-4.036-4.89 96.424 96.424 0 0 0-2.624-2.332 174.052 174.052 0 0 1-2.966-2.606c-1.446-1.306-2.388-2.196-2.964-2.8-1.023-1.051-1.88-2.153-2.54-3.27a19.941 19.941 0 0 1-1.628-3.563C.07 12.09-.06 10.53.137 8.784c.192-1.763.687-3.25 1.472-4.417.794-1.194 1.632-2.156 3.13-2.963C6.04.716 7.745.25 9.197.184c1.248-.058 2.585.18 3.934.713 1.888.747 3.465 2.059 4.7 3.907 1.214-1.839 2.786-3.147 4.684-3.898 1.311-.53 2.643-.774 3.933-.722 1.369.062 2.828.222 4.236.978 1.268.675 2.366 1.727 3.355 3.216.778 1.147 1.276 2.634 1.48 4.414.19 1.745.057 3.304-.394 4.636a19.896 19.896 0 0 1-1.626 3.564c-.627 1.074-1.484 2.177-2.545 3.275-.64.653-1.662 1.616-2.961 2.789-.651.595-1.678 1.497-2.967 2.607a73.967 73.967 0 0 0-2.62 2.335 24.76 24.76 0 0 0-4.066 4.89l-.533.841z"/>
        <path fill="#007A41" d="M45.076 9.518c-1.324 0-1.977 1.397-1.977 2.597 0 1.38.653 2.633 1.977 2.633 1.359 0 1.994-1.29 1.994-2.543 0-1.254-.6-2.687-1.994-2.687zm4.536 6.627c0 3.099-1.995 4.657-4.89 4.657-1.04 0-4.005-.519-4.005-1.934 0-.484.53-1.129 1.023-1.129.812 0 1.712.806 3.177.806 1.235 0 2.153-.734 2.153-2.041v-.61h-.035c-.53.788-1.395 1.218-2.56 1.218-2.664 0-3.917-2.382-3.917-4.943 0-2.597 1.624-5.015 4.183-5.015.865 0 1.852.393 2.329 1.181.16-.68.565-1.074 1.27-1.074.742 0 1.272.573 1.272 1.433v7.451zM51.113 8.55c0-.86.67-1.29 1.306-1.29.67 0 1.235.251 1.235 1.075h.035c.477-.716.988-1.074 1.783-1.074.618 0 1.235.448 1.235 1.38 0 .841-.759.895-1.518 1.253-.758.358-1.535.698-1.535 1.72v3.958c0 .86-.53 1.433-1.27 1.433-.742 0-1.271-.573-1.271-1.433V8.55M63.59 11.273c-.14-1.128-.847-1.97-2.03-1.97-1.129 0-1.888.877-2.011 1.97h4.041zm-3.988 1.72c.176 1.271 1.218 1.862 2.4 1.862 1.306 0 2.206-1.039 2.877-1.039.547 0 1.04.556 1.04 1.111 0 1.111-2.258 2.185-4.146 2.185-2.86 0-4.766-2.113-4.766-4.961 0-2.615 1.871-4.997 4.554-4.997 2.753 0 4.571 2.543 4.571 4.692 0 .77-.335 1.147-1.112 1.147h-5.418zM73.598 11.273c-.141-1.128-.847-1.97-2.03-1.97-1.13 0-1.888.877-2.012 1.97h4.042zm-3.989 1.72c.177 1.271 1.218 1.862 2.4 1.862 1.307 0 2.207-1.039 2.877-1.039.547 0 1.041.556 1.041 1.111 0 1.111-2.259 2.185-4.147 2.185-2.86 0-4.765-2.113-4.765-4.961 0-2.615 1.87-4.997 4.553-4.997 2.754 0 4.571 2.543 4.571 4.692 0 .77-.335 1.147-1.112 1.147H69.61zM77.305 8.694c0-.86.53-1.433 1.27-1.433.653 0 1.077.358 1.165.95.494-.7 1.253-1.057 2.453-1.057 1.995 0 3.477 1.289 3.477 3.474v4.944c0 .86-.53 1.433-1.27 1.433-.742 0-1.272-.573-1.272-1.433v-4.496c0-1.2-.74-1.773-1.658-1.773-1.042 0-1.624.77-1.624 1.773v4.496c0 .86-.53 1.433-1.27 1.433-.742 0-1.271-.573-1.271-1.433V8.694M87.206 4.538c0-.86.53-1.433 1.271-1.433.74 0 1.27.574 1.27 1.433v3.51h.036c.53-.662 1.518-.894 2.312-.894 1.994 0 3.477 1.289 3.477 3.474v4.944c0 .86-.53 1.433-1.27 1.433-.742 0-1.272-.573-1.272-1.433v-4.496c0-1.2-.74-1.773-1.658-1.773-1.042 0-1.624.77-1.624 1.773v4.496c0 .86-.53 1.433-1.27 1.433-.742 0-1.272-.573-1.272-1.433V4.538M103.32 11.273c-.141-1.128-.847-1.97-2.03-1.97-1.129 0-1.888.877-2.011 1.97h4.041zm-3.989 1.72c.177 1.271 1.218 1.862 2.4 1.862 1.307 0 2.207-1.039 2.877-1.039.548 0 1.042.556 1.042 1.111 0 1.111-2.26 2.185-4.147 2.185-2.86 0-4.766-2.113-4.766-4.961 0-2.615 1.871-4.997 4.554-4.997 2.752 0 4.571 2.543 4.571 4.692 0 .77-.336 1.147-1.112 1.147H99.33zM111.386 14.748c1.324 0 1.96-1.361 1.96-2.597s-.618-2.633-1.96-2.633c-1.394 0-2.012 1.397-2.012 2.633s.635 2.597 2.012 2.597zm4.5.573c0 .663 0 1.684-1.217 1.684-.741 0-1.041-.412-1.218-1.092-.653.788-1.447 1.2-2.418 1.2-2.382 0-4.2-2.06-4.2-4.962 0-2.83 1.87-4.997 4.2-4.997.936 0 1.853.376 2.418 1.181.07-.626.6-1.074 1.218-1.074 1.217 0 1.217 1.02 1.217 1.684v6.376zM117.387 8.55c0-.86.671-1.29 1.307-1.29.67 0 1.235.251 1.235 1.075h.036c.476-.716.988-1.074 1.782-1.074.617 0 1.235.448 1.235 1.38 0 .841-.759.895-1.518 1.253-.759.358-1.535.698-1.535 1.72v3.958c0 .86-.53 1.433-1.271 1.433-.74 0-1.27-.573-1.27-1.433V8.55M125.514 9.625h-.565c-.689 0-1.112-.43-1.112-1.128 0-.645.477-1.129 1.112-1.129h.565v-1.54c0-.86.529-1.433 1.27-1.433.742 0 1.27.573 1.27 1.433v1.54h.725c.652 0 1.217.305 1.217 1.129 0 .806-.565 1.128-1.217 1.128h-.724v5.947c0 .86-.53 1.433-1.27 1.433-.742 0-1.271-.573-1.271-1.433V9.625M131.246 2.676h.272c.31 0 .573-.116.573-.41 0-.21-.15-.422-.573-.422-.122 0-.206.012-.272.021v.811zm0 1.325h-.376V1.608c.198-.03.385-.058.667-.058.357 0 .592.077.734.18.14.105.215.268.215.496 0 .316-.206.506-.46.582v.02c.207.038.347.228.394.582.057.371.113.514.15.59h-.394c-.056-.076-.112-.295-.16-.61-.056-.304-.206-.42-.507-.42h-.263V4zm.395-3.062c-.93 0-1.692.81-1.692 1.813 0 1.02.762 1.822 1.7 1.822.941.009 1.692-.802 1.692-1.813S132.591.94 131.65.94h-.01zm.009-.334c1.156 0 2.077.954 2.077 2.147 0 1.21-.921 2.155-2.086 2.155-1.156 0-2.096-.945-2.096-2.155 0-1.193.94-2.147 2.096-2.147h.009z"/>
    </g>
</svg>
