<svg xmlns="http://www.w3.org/2000/svg" width="600" height="600" viewBox="0 0 600 600"><g fill="#6D6E71"><path d="M293.635 115.87c14.67-26.3 34.53-44.23 59.485-53.957 15.267-6.078 30.236-8.674 44.612-8.104 15.368.675 32.236 2.412 48.1 10.794 17.26 9.062 29.14 22.936 37.924 35.943 8.884 12.92 14.366 29.385 16.678 49.343 2.19 19.85.69 37.19-4.407 52.026-5.178 14.75-11.47 28.43-19.05 41.146-7.488 12.623-17.475 25.154-29.754 37.682-7.277 7.316-19.053 18.3-35.52 32.95-7.485 6.74-19.364 17.058-35.832 31.028-14.473 12.242-25.052 21.59-32.038 28.137-19.76 18.118-36.523 38.063-50.498 59.84-13.773-21.776-30.438-41.722-50.197-59.937-6.99-6.45-17.668-15.8-32.035-28.04-16.467-13.972-28.35-24.378-35.83-31.028-16.463-14.65-28.347-25.635-35.53-33.05-12.274-12.43-22.152-25.052-29.74-37.68-7.485-12.62-13.872-26.3-19.063-41.146-5.087-14.74-6.585-32.08-4.296-52.032 2.195-19.856 7.688-36.32 16.57-49.34 8.785-13 17.97-23.794 35.23-32.952 15.868-8.283 35.43-13.012 50.8-13.688 14.375-.668 29.24 2.025 44.605 8 24.953 9.732 44.816 27.76 59.785 54.06"/><path d="M293.3 443.405l-4.825-7.63c-13.483-21.32-30.05-41.097-49.235-58.782-6.913-6.38-17.634-15.766-31.866-27.893-16.823-14.27-28.82-24.793-35.923-31.105-17.492-15.568-28.88-26.164-35.838-33.348-12.31-12.463-22.598-25.504-30.54-38.72-7.77-13.1-14.345-27.292-19.56-42.21-5.403-15.653-6.94-34.01-4.58-54.584 2.295-20.762 8.194-38.24 17.533-51.924 9.483-14.036 19.46-25.335 37.282-34.794 15.514-8.097 35.9-13.59 53.243-14.352 1.498-.07 3.038-.105 4.562-.105 13.633 0 27.893 2.855 42.38 8.49 23.31 9.09 42.67 25.317 57.662 48.304 14.702-22.863 33.988-39.057 57.438-48.2 15.656-6.23 31.505-9.1 46.93-8.49 16.37.72 33.806 2.604 50.56 11.456 15.076 7.917 28.165 20.286 40 37.81 9.26 13.464 15.197 30.938 17.625 51.898 2.27 20.566.693 38.912-4.68 54.557-5.345 15.223-11.917 29.416-19.55 42.222-7.534 12.7-17.828 25.747-30.587 38.764-7.74 7.782-20.11 19.26-35.804 33.224-7.912 7.123-20.347 17.89-35.935 31.115-13.456 11.38-24.46 21.042-31.826 27.946-19.186 17.594-35.855 37.348-49.59 58.752l-4.875 7.597zM193.55 59.46c-1.345 0-2.705.03-4.04.094-15.783.693-34.326 5.69-48.408 13.04-15.737 8.353-24.346 18.085-33.124 31.076-8.28 12.134-13.53 27.856-15.62 46.752-2.166 18.875-.814 35.528 4.016 49.522 4.957 14.178 11.21 27.672 18.572 40.09 7.455 12.404 17.18 24.718 28.887 36.572 6.797 7.014 17.988 17.424 35.262 32.795 7.053 6.27 18.98 16.73 35.728 30.94 14.358 12.233 25.193 21.718 32.215 28.2 17.694 16.31 33.25 34.346 46.33 53.705 13.28-19.42 28.918-37.428 46.58-53.623 7.46-6.992 18.615-16.79 32.212-28.29 15.496-13.145 27.843-23.835 35.697-30.91 15.55-13.83 27.743-25.144 35.29-32.73 12.086-12.33 21.814-24.642 28.887-36.562 7.348-12.33 13.42-25.45 18.568-40.117 4.807-13.99 6.196-30.655 4.118-49.49-2.206-19.048-7.49-34.775-15.7-46.717-10.92-16.168-22.307-26.994-35.858-34.11-14.757-7.796-30.675-9.48-45.68-10.14-1.186-.05-2.415-.072-3.63-.072-12.662 0-25.65 2.615-38.604 7.77-23.682 9.233-42.708 26.527-56.59 51.416l-4.972 8.913-5.048-8.87c-14.255-25.045-33.392-42.388-56.878-51.547-13.15-5.112-26.007-7.706-38.21-7.706z"/><g><path d="M99.518 531.956c0 16.607-10.848 24.96-26.59 24.96-5.664 0-21.79-2.786-21.79-10.368 0-2.592 2.88-6.05 5.567-6.05 4.416 0 9.31 4.32 17.28 4.32 6.718 0 11.71-3.935 11.71-10.942v-3.264h-.192c-2.88 4.223-7.583 6.527-13.92 6.527-14.494 0-21.31-12.77-21.31-26.495 0-13.918 8.83-26.877 22.75-26.877 4.704 0 10.08 2.11 12.672 6.334.863-3.646 3.07-5.76 6.91-5.76 4.033 0 6.912 3.072 6.912 7.68v39.934zm-24.67-35.518c-7.2 0-10.752 7.488-10.752 13.92 0 7.39 3.553 14.11 10.752 14.11 7.392 0 10.848-6.91 10.848-13.632 0-6.718-3.264-14.398-10.848-14.398zM107.68 491.255c0-4.607 3.648-6.912 7.104-6.912 3.648 0 6.72 1.344 6.72 5.76h.192c2.592-3.84 5.375-5.76 9.695-5.76 3.36 0 6.72 2.4 6.72 7.393 0 4.512-4.127 4.8-8.255 6.72s-8.35 3.743-8.35 9.214v21.215c0 4.607-2.882 7.68-6.913 7.68s-6.912-3.072-6.912-7.68v-37.63zM153.854 515.062c.96 6.814 6.624 9.982 13.056 9.982 7.104 0 11.998-5.566 15.646-5.566 2.976 0 5.664 2.975 5.664 5.95 0 5.952-12.287 11.712-22.56 11.712-15.55 0-25.917-11.326-25.917-26.59 0-14.016 10.175-26.78 24.766-26.78 14.974 0 24.86 13.63 24.86 25.147 0 4.13-1.822 6.145-6.047 6.145h-29.47zm21.695-9.215c-.77-6.05-4.608-10.56-11.04-10.56-6.144 0-10.27 4.704-10.943 10.56h21.982zM208.285 515.062c.96 6.814 6.624 9.982 13.056 9.982 7.105 0 12-5.566 15.648-5.566 2.975 0 5.663 2.975 5.663 5.95 0 5.952-12.286 11.712-22.558 11.712-15.55 0-25.918-11.326-25.918-26.59 0-14.016 10.175-26.78 24.767-26.78 14.976 0 24.862 13.63 24.862 25.147 0 4.13-1.823 6.145-6.047 6.145h-29.47zm21.695-9.215c-.768-6.05-4.607-10.56-11.04-10.56-6.144 0-10.27 4.704-10.942 10.56h21.982zM250.14 492.022c0-4.607 2.882-7.68 6.913-7.68 3.552 0 5.855 1.92 6.336 5.088 2.687-3.744 6.813-5.662 13.342-5.662 10.847 0 18.91 6.91 18.91 18.62v26.495c0 4.607-2.88 7.68-6.91 7.68s-6.913-3.072-6.913-7.68V504.79c0-6.432-4.032-9.504-9.024-9.504-5.663 0-8.83 4.13-8.83 9.504v24.094c0 4.607-2.88 7.68-6.912 7.68s-6.912-3.072-6.912-7.68v-36.862zM303.997 469.753c0-4.607 2.88-7.68 6.912-7.68 4.03 0 6.91 3.072 6.91 7.68v18.814h.192c2.88-3.553 8.255-4.8 12.574-4.8 10.848 0 18.91 6.91 18.91 18.622v26.493c0 4.607-2.88 7.68-6.91 7.68-4.032 0-6.912-3.072-6.912-7.68V504.79c0-6.432-4.03-9.504-9.023-9.504-5.662 0-8.83 4.13-8.83 9.504v24.094c0 4.607-2.88 7.68-6.91 7.68-4.033 0-6.913-3.072-6.913-7.68v-59.13zM369.948 515.062c.96 6.814 6.623 9.982 13.055 9.982 7.104 0 12-5.566 15.646-5.566 2.976 0 5.663 2.975 5.663 5.95 0 5.952-12.287 11.712-22.56 11.712-15.55 0-25.917-11.326-25.917-26.59 0-14.016 10.175-26.78 24.767-26.78 14.975 0 24.86 13.63 24.86 25.147 0 4.13-1.822 6.145-6.046 6.145h-29.47zm21.695-9.215c-.77-6.05-4.608-10.56-11.04-10.56-6.143 0-10.27 4.704-10.942 10.56h21.983zM459.992 527.54c0 3.553 0 9.023-6.623 9.023-4.033 0-5.665-2.207-6.625-5.855-3.552 4.225-7.87 6.432-13.15 6.432-12.96 0-22.847-11.04-22.847-26.59 0-15.168 10.175-26.78 22.847-26.78 5.087 0 10.08 2.015 13.15 6.333.384-3.36 3.264-5.76 6.624-5.76 6.622 0 6.622 5.473 6.622 9.023v34.174zm-24.477-3.072c7.2 0 10.654-7.295 10.654-13.918s-3.36-14.11-10.655-14.11c-7.584 0-10.943 7.487-10.943 14.11s3.454 13.918 10.943 13.918zM468.156 491.255c0-4.607 3.647-6.912 7.104-6.912 3.647 0 6.72 1.344 6.72 5.76h.19c2.593-3.84 5.377-5.76 9.696-5.76 3.36 0 6.72 2.4 6.72 7.393 0 4.512-4.128 4.8-8.256 6.72s-8.352 3.743-8.352 9.214v21.215c0 4.607-2.88 7.68-6.91 7.68-4.033 0-6.912-3.072-6.912-7.68v-37.63zM512.354 497.015h-3.072c-3.744 0-6.048-2.305-6.048-6.047 0-3.457 2.592-6.05 6.048-6.05h3.072v-8.253c0-4.61 2.88-7.68 6.91-7.68 4.032 0 6.912 3.07 6.912 7.68v8.254h3.936c3.552 0 6.624 1.632 6.624 6.048 0 4.318-3.072 6.047-6.624 6.047h-3.936v31.87c0 4.606-2.88 7.68-6.91 7.68-4.033 0-6.912-3.073-6.912-7.68v-31.87z"/></g></g><path fill="#6D6E71" d="M545.336 449.313c4.64 0 8.337 3.773 8.337 8.49 0 4.785-3.697 8.52-8.374 8.52-4.64 0-8.41-3.735-8.41-8.52 0-4.717 3.77-8.49 8.41-8.49h.036zm-.037 1.32c-3.734 0-6.79 3.206-6.79 7.17 0 4.034 3.056 7.204 6.826 7.204 3.774.037 6.79-3.17 6.79-7.166 0-4-3.016-7.208-6.79-7.208h-.037zm-1.586 12.11h-1.507v-9.465c.792-.117 1.544-.23 2.676-.23 1.434 0 2.377.304 2.944.716.564.414.866 1.055.866 1.96 0 1.247-.83 2-1.847 2.302v.08c.83.148 1.394.9 1.58 2.3.23 1.468.455 2.034.605 2.337h-1.584c-.225-.303-.45-1.172-.64-2.418-.227-1.2-.83-1.658-2.036-1.658h-1.058v4.076zm0-5.24h1.095c1.245 0 2.3-.457 2.3-1.623 0-.832-.602-1.666-2.3-1.666-.49 0-.83.045-1.096.082v3.207z"/></svg>