<svg xmlns="http://www.w3.org/2000/svg" width="24" height="24" viewBox="0 0 24 24">
    <path fill="#FFF" fill-rule="nonzero" d="M11.638 19.884c.578 0 1.048.47 1.048 1.048v.002a1.05 1.05 0 0 1-1.048 1.048h-.002a1.05 1.05 0 0 1-1.048-1.048v-.001c0-.58.47-1.05 1.048-1.05h.002zm4.668-15.916c1.27 1.27 1.968 2.928 1.968 4.67 0 2.908-1.944 5.522-4.728 6.357-.515.155-.86.61-.86 1.133v.334a1.048 1.048 0 0 1-2.097 0v-.334c0-1.456.946-2.718 2.355-3.14a4.57 4.57 0 0 0 3.234-4.35c0-1.182-.48-2.314-1.354-3.188-.874-.873-2.006-1.354-3.187-1.354a4.546 4.546 0 0 0-4.541 4.541 1.048 1.048 0 0 1-2.096 0A6.645 6.645 0 0 1 11.636 2c1.742 0 3.4.699 4.67 1.968z"/>
</svg>
