<svg xmlns="http://www.w3.org/2000/svg" width="13" height="13" viewBox="0 0 13 13">
    <path fill="#FFF" fill-rule="nonzero" d="M9.008 9.602a2.59 2.59 0 0 1-.756 1.642.461.461 0 0 1-.351.137.5.5 0 0 1-.356-.15L5.79 9.474.423 12.948a.279.279 0 0 1-.17.052.233.233 0 0 1-.167-.075c-.102-.102-.113-.21-.034-.327l3.34-5.524L1.78 5.46a.5.5 0 0 1-.15-.357.462.462 0 0 1 .136-.35c.444-.445.99-.697 1.64-.758.65-.06 1.162.095 1.533.467L7.71 1.688a1 1 0 0 1-.3-.713.925.925 0 0 1 .272-.701A.923.923 0 0 1 8.383 0c.28.006.517.106.712.302L12.7 3.908a1 1 0 0 1 .3.713.925.925 0 0 1-.272.702.924.924 0 0 1-.702.273.998.998 0 0 1-.712-.301L8.542 8.068c.372.372.527.883.466 1.534zm-2.96-3.838l2.781-2.785c.058-.058.075-.136.05-.236a.645.645 0 0 0-.182-.294.646.646 0 0 0-.293-.182c-.1-.025-.178-.008-.236.05L5.385 5.102c-.057.058-.074.136-.05.236.025.1.086.197.183.294a.645.645 0 0 0 .293.182c.1.024.178.008.236-.05z"/>
</svg>
