<?xml version="1.0" encoding="utf-8"?>
<!-- Generator: Adobe Illustrator 16.0.0, SVG Export Plug-In . SVG Version: 6.00 Build 0)  -->
<!DOCTYPE svg PUBLIC "-//W3C//DTD SVG 1.1//EN" "http://www.w3.org/Graphics/SVG/1.1/DTD/svg11.dtd">
<svg version="1.1" id="Layer_1" xmlns="http://www.w3.org/2000/svg" xmlns:xlink="http://www.w3.org/1999/xlink" x="0px" y="0px"
	 width="12px" height="12px" viewBox="12 12 12 12" enable-background="new 12 12 12 12" xml:space="preserve">
<path fill="#6D6E70" d="M21.571,15.154c0-1.74-1.413-3.154-3.154-3.154c-1.742,0-3.155,1.414-3.155,3.154v1.262
	c-0.693,0-1.262,0.568-1.262,1.262v5.049c0,0.693,0.568,1.262,1.262,1.262h6.31c0.693,0,1.262-0.568,1.262-1.262v-5.049
	c0-0.693-0.568-1.262-1.262-1.262V15.154z M17.154,20.203c0-0.695,0.568-1.264,1.263-1.264c0.693,0,1.262,0.568,1.262,1.264
	c0,0.693-0.568,1.262-1.262,1.262C17.723,21.465,17.154,20.896,17.154,20.203z M16.461,16.416v-1.262
	c0-1.078,0.877-1.955,1.956-1.955c1.078,0,1.955,0.877,1.955,1.955v1.262H16.461z"/>
</svg>
