<svg xmlns="http://www.w3.org/2000/svg" width="50" height="50" viewBox="0 0 50 50">
    <path fill="#8AC53F" fill-rule="nonzero" d="M9.167 42.5a.83.83 0 0 1-.59-.244l-6.666-6.667c-.029-.02-1.91-1.644-1.91-4.756v-12.5A3.337 3.337 0 0 1 3.333 15a3.337 3.337 0 0 1 3.333 3.333v6.597a.833.833 0 1 1-1.667 0v-6.597c0-.919-.747-1.666-1.666-1.666-.92 0-1.667.747-1.667 1.666v12.5c0 2.309 1.32 3.485 1.376 3.535l6.713 6.71a.834.834 0 0 1-.589 1.422zm10 2.5c.46 0 .833.373.833.833v3.334a.834.834 0 0 1-1.666 0v-2.5H6.667v2.5a.834.834 0 0 1-1.667 0v-3.334c0-.46.373-.833.834-.833h13.333zM5.051 29.983a3.1 3.1 0 0 1 .926-2.34 3.098 3.098 0 0 1 2.34-.926c.838.035 1.646.4 2.273 1.027l5.833 5.833c.037.03 1.91 1.69 1.91 4.756V42.5a.834.834 0 0 1-1.666 0v-4.167c0-2.279-1.327-3.49-1.384-3.54l-5.872-5.87c-.33-.331-.743-.523-1.161-.54-.41-.016-.791.134-1.095.439a1.435 1.435 0 0 0-.439 1.094c.018.418.209.83.54 1.16l4.167 4.168a.834.834 0 0 1-1.178 1.178l-4.167-4.166c-.628-.627-.993-1.434-1.027-2.273zm28.57 3.554l5.79-5.793c.627-.627 1.434-.992 2.272-1.027a3.12 3.12 0 0 1 2.34.926c.6.6.93 1.385.93 2.214-.002.885-.368 1.737-1.03 2.4l-4.168 4.165a.832.832 0 1 1-1.178-1.178l4.167-4.167c.349-.348.541-.781.541-1.22 0-.39-.152-.747-.44-1.035a1.433 1.433 0 0 0-1.094-.44c-.419.018-.831.21-1.162.54l-5.833 5.834c-.096.086-1.422 1.298-1.422 3.577V42.5a.834.834 0 0 1-1.667 0v-4.167c0-3.066 1.874-4.726 1.953-4.796zM40 9.167c0 5.381-5.117 13.891-14.6 19.065a.839.839 0 0 1-.799 0c-9.484-5.174-14.6-13.684-14.6-19.065C10 4.112 14.111 0 19.166 0c1.275 0 2.51.258 3.67.765a.833.833 0 1 1-.667 1.527 7.442 7.442 0 0 0-3.003-.625c-4.136 0-7.5 3.364-7.5 7.5 0 4.892 4.978 12.666 13.333 17.38 8.355-4.714 13.333-12.488 13.333-17.38 0-4.136-3.364-7.5-7.5-7.5a7.531 7.531 0 0 0-6.802 4.336.834.834 0 0 1-1.51-.705A9.203 9.203 0 0 1 30.833 0C35.888 0 40 4.112 40 9.167zM46.666 15A3.337 3.337 0 0 1 50 18.333v12.5c0 3.112-1.883 4.736-1.963 4.804l-6.615 6.619a.831.831 0 0 1-1.178 0 .834.834 0 0 1 0-1.178l6.666-6.667c.104-.093 1.423-1.27 1.423-3.578v-12.5c0-.919-.748-1.666-1.667-1.666S45 17.414 45 18.333v6.597a.833.833 0 1 1-1.667 0v-6.597A3.337 3.337 0 0 1 46.666 15zm-2.5 30c.46 0 .834.373.834.833v3.334a.834.834 0 0 1-1.667 0v-2.5H31.667v2.5a.834.834 0 0 1-1.667 0v-3.334c0-.46.373-.833.834-.833h13.332zM32.228 5.238a.834.834 0 0 1 .557-1.57 5.813 5.813 0 0 1 3.549 3.551.835.835 0 0 1-1.571.558 4.211 4.211 0 0 0-2.535-2.539z"/>
</svg>
