<svg xmlns="http://www.w3.org/2000/svg" width="50" height="50" viewBox="0 0 50 50">
    <path fill="#8AC53F" fill-rule="nonzero" d="M5.726 4.16l19.166 2.5a.924.924 0 0 0 .215 0l18.226-2.378v2.893c-.522.588-1.666 2.054-1.666 3.658 0 1.834 1.495 2.5 2.5 2.5s2.5-.666 2.5-2.5c0-1.604-1.145-3.07-1.667-3.658V3.333a.825.825 0 0 0-.063-.31c-.014-.035-.038-.062-.056-.093a.824.824 0 0 0-.11-.165c-.03-.03-.064-.051-.098-.076a.783.783 0 0 0-.149-.102c-.04-.02-.084-.028-.128-.04-.04-.013-.078-.035-.122-.04L25.108.006a.932.932 0 0 0-.216 0l-19.166 2.5a.834.834 0 0 0 0 1.653zM45 10.833c0 .665-.451.82-.833.833-.383-.012-.834-.168-.834-.833 0-.692.425-1.463.834-2.033.408.57.833 1.341.833 2.033zm-31.667 8.363c.015 3.162 2.415 9.601 3.245 11.264.749 1.496 4.704 6.206 8.422 6.206 3.718 0 7.673-4.71 8.42-6.206.833-1.665 3.237-8.117 3.247-11.276a.831.831 0 0 1-.334.649l-3.046 2.283C33.066 23.74 31.683 25 30 25h-1.667A3.337 3.337 0 0 1 25 21.666 3.337 3.337 0 0 1 21.667 25H20c-1.684 0-3.066-1.26-3.288-2.884l-3.045-2.283a.831.831 0 0 1-.334-.637zm0-.058a.834.834 0 0 1 1.333-.638l2.125 1.593a2.495 2.495 0 0 1 2.376-1.76H22.5c1.378 0 2.5 1.122 2.5 2.5 0-1.378 1.121-2.5 2.5-2.5h3.333c1.12 0 2.059.744 2.376 1.76l2.124-1.593a.832.832 0 0 1 1.334.648v-3.315a.835.835 0 0 1 1.205-.745c.155.077 3.795 1.978 3.795 9.078v6.667c0 3.95 1.59 7.984 1.607 8.024a.833.833 0 0 1-1.548.62C41.656 39.3 40 35.11 40 30.832v-6.667c0-3.377-.88-5.34-1.667-6.42v1.42c0 3.577-2.624 10.446-3.421 12.04-1.014 2.028-5.452 7.127-9.912 7.127-4.46 0-8.898-5.1-9.912-7.128-.797-1.593-3.421-8.462-3.421-12.039v-1.422C10.88 18.824 10 20.787 10 24.166v6.667c0 4.278-1.656 8.467-1.726 8.643a.835.835 0 0 1-1.548-.619c.017-.04 1.607-4.074 1.607-8.024v-6.667c0-7.1 3.64-9 3.795-9.078a.835.835 0 0 1 1.206.745v3.305zM25 1.673l12.724 1.66L25 4.993l-12.724-1.66L25 1.673zm-1.667 19.993v-.833A.834.834 0 0 0 22.5 20h-3.334a.834.834 0 0 0-.833.833v.833c0 .92.748 1.667 1.667 1.667h1.666c.919 0 1.667-.748 1.667-1.667zm3.334 0c0 .92.747 1.667 1.666 1.667H30c.919 0 1.666-.748 1.666-1.667v-.833a.834.834 0 0 0-.833-.833H27.5a.834.834 0 0 0-.833.833v.833zm11.632 20.63c.013.05.016.097.02.147a.791.791 0 0 1-.002.166c-.006.055-.025.105-.042.157-.012.035-.012.072-.03.106-.007.016-.022.025-.03.04-.027.047-.063.084-.098.126-.039.044-.075.087-.122.122-.013.01-.02.024-.033.033l-5 3.333a.832.832 0 0 1-1.156-.23.833.833 0 0 1 .232-1.156l3.805-2.538-1.615-.807L30 44.612V47.5c0 .22-.088.433-.244.589-.078.078-1.944 1.91-4.756 1.91-2.813 0-4.678-1.832-4.756-1.91a.831.831 0 0 1-.244-.59v-2.887l-4.227-2.817-1.616.808 3.805 2.537a.833.833 0 1 1-.924 1.386l-5-3.333c-.014-.01-.021-.024-.035-.034-.043-.034-.078-.075-.115-.117-.039-.042-.076-.083-.104-.132-.008-.014-.022-.023-.03-.038-.016-.032-.015-.067-.026-.1-.02-.055-.039-.108-.045-.167a.815.815 0 0 1-.001-.156.819.819 0 0 1 .02-.156.856.856 0 0 1 .066-.16c.015-.032.019-.066.039-.096.009-.013.024-.02.034-.034.032-.044.074-.078.116-.115a.737.737 0 0 1 .134-.105c.013-.009.022-.022.037-.03l3.333-1.665a.832.832 0 0 1 .835.051l5 3.334c.231.154.37.415.37.693v2.953c.5.395 1.73 1.214 3.334 1.214 1.62 0 2.837-.815 3.333-1.212v-2.955c0-.278.14-.539.371-.693l5-3.333a.832.832 0 0 1 .836-.052l3.333 1.666c.016.008.024.021.039.03.047.027.086.063.126.1a.813.813 0 0 1 .124.121c.009.013.022.02.031.032.019.028.022.062.038.09a.88.88 0 0 1 .068.168zM26.921 30.234a.839.839 0 0 1 1.173.024.827.827 0 0 1-.005 1.163c-.11.11-1.133 1.078-3.09 1.078-1.955 0-2.978-.968-3.088-1.078a.832.832 0 0 1 1.17-1.187c.043.04.671.598 1.919.598 1.266 0 1.894-.574 1.92-.598zm23.035 18.668a.833.833 0 1 1-1.58.527c-.063-.184-1.639-4.595-7.745-6.122a.834.834 0 0 1 .404-1.617c7.03 1.758 8.848 6.99 8.921 7.212zM38.333 12.5a.834.834 0 0 1-.46.745c-.212.105-5.264 2.588-12.873 2.588-7.61 0-12.661-2.483-12.873-2.588a.834.834 0 0 1-.46-.745V6.666a.833.833 0 1 1 1.666 0v5.294c1.378.585 5.74 2.206 11.667 2.206 5.926 0 10.288-1.621 11.667-2.206V6.666a.833.833 0 1 1 1.666 0V12.5zM8.965 41.69a.832.832 0 1 1 .403 1.617c-6.151 1.537-7.729 6.076-7.745 6.122a.832.832 0 1 1-1.58-.527c.074-.222 1.892-5.454 8.922-7.212z"/>
</svg>
