<svg xmlns="http://www.w3.org/2000/svg" width="80" height="80" viewBox="0 0 80 80">
    <path fill="#8AC53F" fill-rule="nonzero" d="M28 53.333h17.333a1.333 1.333 0 1 1 0 2.667H28c-1.566 0-2.718-1.265-4.176-2.867C21.742 50.847 19.149 48 14.666 48c-2.861 0-3.857.408-4.12.553A1.333 1.333 0 0 1 8 48c0-1.217 1.156-2.667 6.667-2.667 5.661 0 8.952 3.614 11.129 6.004.724.796 1.817 1.996 2.204 1.996zm3.448-42.786A1.333 1.333 0 0 1 32 8c1.216 0 2.667 1.157 2.667 6.667 0 5.661-3.614 8.952-6.006 11.129-.794.724-1.994 1.817-1.994 2.204v17.333a1.333 1.333 0 1 1-2.667 0V28c0-1.565 1.264-2.717 2.865-4.176C29.153 21.741 32 19.15 32 14.667c0-2.862-.408-3.856-.552-4.12zM0 25.333C0 24.597.596 24 1.333 24h5.735l-.14-.453C6.181 21.136 5.333 18.404 5.333 16v-5.333h-4a1.333 1.333 0 1 1 0-2.667h4V4c0-2.205 1.795-4 4-4C10.357 0 11.292.387 12 1.021A3.983 3.983 0 0 1 14.667 0c1.024 0 1.958.387 2.666 1.021A3.983 3.983 0 0 1 20 0c1.024 0 1.959.387 2.666 1.021A3.983 3.983 0 0 1 25.333 0c2.205 0 4 1.795 4 4v10.667a1.333 1.333 0 1 1-2.666 0V4A1.335 1.335 0 0 0 24 4a1.333 1.333 0 0 1-2.667 0c0-.735-.598-1.333-1.333-1.333-.736 0-1.334.598-1.334 1.333A1.333 1.333 0 1 1 16 4a1.335 1.335 0 0 0-2.667 0 1.333 1.333 0 1 1-2.666 0A1.335 1.335 0 0 0 8 4v12c0 2 .784 4.527 1.475 6.756.64 2.063 1.192 3.844 1.192 5.244v13.333a1.333 1.333 0 1 1-2.667 0V28c0-.359-.084-.827-.195-1.333H1.333A1.333 1.333 0 0 1 0 25.333zm54.204 3.33c-.724-.796-1.817-1.996-2.204-1.996H34.667a1.333 1.333 0 1 1 0-2.667H52c1.566 0 2.718 1.265 4.176 2.867C58.258 29.153 60.851 32 65.334 32c2.861 0 3.857-.408 4.12-.553A1.333 1.333 0 0 1 72 32c0 1.217-1.156 2.667-6.667 2.667-5.661 0-8.952-3.614-11.129-6.004zm-12.87 40.67a1.333 1.333 0 1 1 0 2.667H28c-.359 0-.825.083-1.333.195v6.472a1.333 1.333 0 1 1-2.667 0v-5.734l-.455.139c-2.41.748-5.14 1.595-7.545 1.595h-5.333v4a1.333 1.333 0 1 1-2.667 0v-4H4c-2.205 0-4-1.795-4-4C0 69.643.387 68.708 1.021 68A3.983 3.983 0 0 1 0 65.333c0-1.024.387-1.958 1.021-2.666A3.983 3.983 0 0 1 0 60c0-1.024.387-1.959 1.021-2.666A3.983 3.983 0 0 1 0 54.667c0-2.205 1.795-4 4-4h10.667a1.333 1.333 0 1 1 0 2.666H4A1.335 1.335 0 0 0 4 56a1.333 1.333 0 1 1 0 2.667c-.736 0-1.333.598-1.333 1.333S3.264 61.333 4 61.333A1.333 1.333 0 1 1 4 64a1.335 1.335 0 0 0 0 2.667 1.333 1.333 0 1 1 0 2.666A1.335 1.335 0 0 0 4 72h12c2 0 4.528-.784 6.756-1.475 2.061-.64 3.843-1.192 5.244-1.192h13.333zM78.978 12A3.983 3.983 0 0 1 80 14.667a3.983 3.983 0 0 1-1.021 2.666A3.984 3.984 0 0 1 80 20a3.98 3.98 0 0 1-1.021 2.666A3.984 3.984 0 0 1 80 25.332c0 2.206-1.795 4-4 4H65.333a1.333 1.333 0 1 1 0-2.666H76c.736 0 1.333-.599 1.333-1.333 0-.735-.597-1.334-1.333-1.334a1.333 1.333 0 1 1 0-2.666c.736 0 1.333-.599 1.333-1.333 0-.735-.597-1.334-1.333-1.334A1.333 1.333 0 1 1 76 16a1.335 1.335 0 0 0 0-2.667 1.333 1.333 0 1 1 0-2.666A1.335 1.335 0 0 0 76 8H64c-2 0-4.528.784-6.756 1.475-2.061.64-3.843 1.192-5.244 1.192H38.667a1.333 1.333 0 1 1 0-2.667H52c.359 0 .825-.083 1.333-.195V1.333a1.333 1.333 0 1 1 2.667 0v5.734l.455-.139c2.41-.748 5.14-1.595 7.545-1.595h5.333v-4a1.333 1.333 0 1 1 2.667 0v4h4c2.205 0 4 1.795 4 4A3.983 3.983 0 0 1 78.979 12zM48.552 69.453A1.333 1.333 0 0 1 48 72c-1.216 0-2.667-1.157-2.667-6.667 0-5.661 3.614-8.952 6.006-11.129.794-.724 1.994-1.817 1.994-2.204V34.667a1.333 1.333 0 1 1 2.667 0V52c0 1.565-1.264 2.717-2.865 4.176C50.847 58.259 48 60.85 48 65.333c0 2.862.408 3.856.552 4.12zM80 54.667c0 .736-.596 1.333-1.333 1.333h-5.735l.14.453c.747 2.411 1.595 5.143 1.595 7.547v5.333h4a1.333 1.333 0 1 1 0 2.667h-4v4c0 2.205-1.795 4-4 4A3.983 3.983 0 0 1 68 78.979 3.984 3.984 0 0 1 65.333 80a3.983 3.983 0 0 1-2.666-1.021A3.983 3.983 0 0 1 60 80a3.979 3.979 0 0 1-2.666-1.021A3.984 3.984 0 0 1 54.668 80c-2.206 0-4-1.795-4-4V65.333a1.333 1.333 0 1 1 2.666 0V76c0 .735.598 1.333 1.333 1.333.736 0 1.334-.598 1.334-1.333a1.333 1.333 0 1 1 2.666 0 1.335 1.335 0 0 0 2.667 0A1.333 1.333 0 1 1 64 76a1.335 1.335 0 0 0 2.667 0 1.333 1.333 0 1 1 2.667 0c0 .735.597 1.333 1.333 1.333S72 76.735 72 76V64c0-2-.784-4.527-1.475-6.756-.64-2.063-1.192-3.844-1.192-5.244V38.667a1.333 1.333 0 1 1 2.667 0V52c0 .359.084.827.195 1.333h6.472c.737 0 1.333.598 1.333 1.334z"/>
</svg>
