<svg xmlns="http://www.w3.org/2000/svg" width="140" height="140" viewBox="0 0 140 140">
    <g fill="none" fill-rule="evenodd">
        <path d="M0 0h140v140H0z"/>
        <g transform="translate(7 10)">
            <path fill="#A7A8A9" fill-rule="nonzero" d="M105.422 84.375H98.39c-5.816 0-10.547-4.731-10.547-10.547v-7.031a3.514 3.514 0 0 1 3.515-3.516 3.514 3.514 0 0 1 3.516 3.516v7.031a3.518 3.518 0 0 0 3.516 3.516h7.03a3.514 3.514 0 0 1 3.516 3.515 3.514 3.514 0 0 1-3.515 3.516z"/>
            <path fill="#A7A8A9" fill-rule="nonzero" d="M112.453 91.406h-7.031a3.514 3.514 0 0 1-3.516-3.515 3.514 3.514 0 0 1 3.516-3.516h7.031a3.518 3.518 0 0 0 3.516-3.516v-7.03a3.514 3.514 0 0 1 3.515-3.516A3.514 3.514 0 0 1 123 73.828v7.031c0 5.816-4.731 10.547-10.547 10.547z"/>
            <path fill="#C6C6C6" fill-rule="nonzero" d="M108.938 59.766v49.218c0 1.97-1.547 3.75-3.516 3.75-1.97 0-3.516-1.78-3.516-3.75V59.766a3.481 3.481 0 0 1 3.516-3.516 3.481 3.481 0 0 1 3.516 3.516z"/>
            <path fill="#A7A8A9" fill-rule="nonzero" d="M108.938 59.766v49.218c0 1.97-1.547 3.75-3.516 3.75V56.25a3.481 3.481 0 0 1 3.516 3.516zM34.875 70.313H17.062C9.308 70.313 3 64.005 3 56.25V28.125c0-3.876 3.155-7.031 7.031-7.031s7.031 3.155 7.031 7.031V56.25h17.813a3.514 3.514 0 0 1 3.516 3.516v7.03a3.514 3.514 0 0 1-3.516 3.516z"/>
            <rect width="6" height="3" y="33" fill="#A7A8A9" rx="1.5"/>
            <rect width="6" height="3" y="46" fill="#A7A8A9" rx="1.5"/>
            <rect width="6" height="3" x="14" y="39" fill="#A7A8A9" rx="1.5"/>
            <rect width="6" height="3" x="33" y="18" fill="#A7A8A9" rx="1.5"/>
            <path fill="#C6C6C6" d="M47.5 31h3a1.5 1.5 0 0 1 0 3h-3a1.5 1.5 0 0 1 0-3zM47.5 57h3a1.5 1.5 0 0 1 0 3h-3a1.5 1.5 0 0 1 0-3zM47.5 99h3a1.5 1.5 0 0 1 0 3h-3a1.5 1.5 0 0 1 0-3z"/>
            <rect width="6" height="3" x="33" y="44" fill="#A7A8A9" rx="1.5"/>
            <rect width="6" height="3" x="64" y="49" fill="#A7A8A9" rx="1.5"/>
            <rect width="6" height="3" x="78" y="45" fill="#A7A8A9" rx="1.5"/>
            <rect width="4" height="2" x="100" y="62" fill="#C6C6C6" rx="1"/>
            <rect width="4" height="2" x="100" y="72" fill="#C6C6C6" rx="1"/>
            <rect width="4" height="2" x="114" y="76" fill="#A7A8A9" rx="1"/>
            <rect width="4" height="2" x="121" y="82" fill="#A7A8A9" rx="1"/>
            <rect width="4" height="2" x="86" y="70" fill="#A7A8A9" rx="1"/>
            <rect width="4" height="2" x="107" y="68" fill="#A7A8A9" rx="1"/>
            <rect width="4" height="2" x="100" y="97" fill="#C6C6C6" rx="1"/>
            <rect width="6" height="3" x="77" y="62" fill="#A7A8A9" rx="1.5"/>
            <rect width="6" height="3" x="33" y="77" fill="#A7A8A9" rx="1.5"/>
            <rect width="6" height="3" x="4.353" y="64.127" fill="#A7A8A9" rx="1.5" transform="rotate(-25 7.353 65.627)"/>
            <rect width="6" height="3" x="33" y="93" fill="#A7A8A9" rx="1.5"/>
            <path fill="#A7A8A9" fill-rule="nonzero" d="M66.516 84.375h-24.61a3.514 3.514 0 0 1-3.515-3.516v-7.03a3.514 3.514 0 0 1 3.515-3.516h24.61V42.186c0-3.876 3.155-7.03 7.03-7.03 3.877 0 7.032 3.154 7.032 7.03v28.126c0 7.755-6.307 14.062-14.062 14.062z"/>
            <path fill="#A7A8A9" fill-rule="nonzero" d="M48.938 14.063v94.921c0 1.97-1.547 3.75-3.516 3.75H38.39c-1.97 0-3.516-1.78-3.516-3.75V14.063c0-3.868 3.164-7.032 7.031-7.032 3.867 0 7.032 3.164 7.032 7.032z"/>
            <path fill="#C6C6C6" fill-rule="nonzero" d="M48.938 14.063v94.921c0 1.97-1.547 3.75-3.516 3.75h-3.516V7.031c3.867 0 7.032 3.164 7.032 7.032z"/>
            <path fill="#A7A8A9" fill-rule="nonzero" d="M119.667 110H6.333C4.547 110 3 110.426 3 111.067v1.866C3 113.574 4.547 114 6.333 114h113.334c1.786 0 3.333-.426 3.333-1.067v-1.866c0-.641-1.547-1.067-3.333-1.067z"/>
            <path fill="#C6C6C6" fill-rule="nonzero" d="M105.422 0c-9.703 0-17.578 7.875-17.578 17.578s7.875 17.578 17.578 17.578S123 27.281 123 17.578 115.125 0 105.422 0z"/>
        </g>
    </g>
</svg>
