<svg xmlns="http://www.w3.org/2000/svg" width="80" height="80" viewBox="0 0 80 80">
    <g fill="none" fill-rule="evenodd">
        <path fill="#F8F8F8" d="M-680-194H760v1351H-680z"/>
        <g fill="#8AC53F" fill-rule="nonzero">
            <path d="M76.777 24.635C74.723 19.9 71.8 15.62 68.09 11.91 64.38 8.2 60.1 5.277 55.365 3.223 50.44 1.084 45.27 0 40 0c-5.27 0-10.439 1.084-15.365 3.223C19.9 5.277 15.62 8.2 11.91 11.91 8.2 15.62 5.277 19.9 3.223 24.635 1.084 29.56 0 34.73 0 40c0 5.27 1.084 10.439 3.223 15.365C5.277 60.1 8.2 64.38 11.91 68.09c3.71 3.71 7.99 6.633 12.725 8.687C29.56 78.916 34.73 80 40 80c5.27 0 10.439-1.084 15.365-3.223C60.1 74.723 64.38 71.8 68.09 68.09c3.71-3.71 6.633-7.99 8.687-12.725C78.916 50.44 80 45.27 80 40c0-5.27-1.084-10.439-3.223-15.365zM40 76.875C20.012 76.875 3.125 59.988 3.125 40S20.012 3.125 40 3.125 76.875 20.012 76.875 40 59.988 76.875 40 76.875z"/>
            <path d="M70.621 27.157a33.824 33.824 0 0 0-7.195-10.583A33.826 33.826 0 0 0 52.843 9.38 32.31 32.31 0 0 0 40 6.72c-6.01 0-12.274 2.052-18.116 5.934a1.562 1.562 0 1 0 1.73 2.603C28.94 11.716 34.607 9.844 40 9.844c16.346 0 30.156 13.81 30.156 30.156 0 16.346-13.81 30.156-30.156 30.156-16.346 0-30.156-13.81-30.156-30.156 0-5.391 1.87-11.058 5.41-16.387a1.563 1.563 0 1 0-2.602-1.73C8.77 27.728 6.719 33.993 6.719 40c0 4.42.895 8.742 2.66 12.843a33.824 33.824 0 0 0 7.195 10.583 33.825 33.825 0 0 0 10.583 7.195A32.311 32.311 0 0 0 40 73.281c4.42 0 8.742-.895 12.843-2.66a33.824 33.824 0 0 0 10.583-7.195 33.826 33.826 0 0 0 7.195-10.583A32.31 32.31 0 0 0 73.28 40c0-4.42-.895-8.742-2.66-12.843z"/>
            <path d="M17.969 16.406a1.563 1.563 0 1 0 0 3.126 1.563 1.563 0 0 0 0-3.126zM58.481 27.769a6.209 6.209 0 0 0-4.419-1.831c-1.668 0-3.238.65-4.418 1.83L35.313 42.1l-4.957-4.956a6.209 6.209 0 0 0-4.419-1.831c-1.668 0-3.238.65-4.418 1.83a6.206 6.206 0 0 0-1.831 4.42c0 1.67.65 3.239 1.83 4.418l9.376 9.375a6.209 6.209 0 0 0 4.419 1.831c1.668 0 3.238-.65 4.418-1.83l18.75-18.75a6.206 6.206 0 0 0 1.831-4.42c0-1.67-.65-3.239-1.83-4.418zm-2.21 6.628l-18.75 18.75c-.59.59-1.374.916-2.209.916a3.105 3.105 0 0 1-2.209-.916l-9.375-9.376a3.102 3.102 0 0 1-.916-2.209c0-.834.326-1.618.916-2.209a3.105 3.105 0 0 1 2.21-.916c.834 0 1.618.326 2.209.916l7.166 7.166 16.54-16.54a3.105 3.105 0 0 1 2.21-.916c.834 0 1.618.325 2.21.916.59.59.914 1.374.914 2.209 0 .834-.325 1.618-.915 2.209z"/>
        </g>
    </g>
</svg>
