<svg xmlns="http://www.w3.org/2000/svg" width="24" height="783" viewBox="0 0 24 783">
    <path fill="#F8F8F8" fill-rule="evenodd" d="M11.126 474.019c0-1.755-.04-3.47-.127-5.13-.12-3.067-.234-6.11-.348-9.174-.971-8.693-1.96-17.037-2.7-25.63-.234-3.834-.47-7.655-.704-11.464l3.879 51.398zM7.247 422.62c-.43-7.07-.857-14.101-1.287-21.11-.139-2.697-.345-5.39-.415-8.08l-.151-8.063c-.095-5.37-.184-10.733-.28-16.095-.43-21.445-.863-42.872-1.3-64.683a3210.12 3210.12 0 0 0-.793 50.367l-.127 25.028c0 4.163 0 8.322-.002 12.48.007 4.156.28 8.313.412 12.464 1.345 33.212 3.046 66.21 4.885 99.117 2.462 65.783 5.391 131.244 6.989 197.3.492-10.48.932-21.094 1.093-31.942.03-4.812.047-9.59.047-14.34-.002-10.45-.08-20.765-.21-30.986-1.25-24.579-3.092-48.294-4.48-72.513-1.414-24.225-2.242-48.952-2.649-75.594.31 10.311.954 19.725 1.804 28.607.69 8.878 1.57 17.225 2.534 25.406-.32-8.177-.639-16.338-.962-24.498-.472-8.164-.941-16.327-1.416-24.51.12-2.372.187-4.7.187-6.957L7.247 422.62zM24 783H13.65c-.07 0-1.18-6.973-1.183-15.504 0-5.47.105-10.968.274-16.505-.182-2.391.335-9.017.437-11.585-.12-2.637-.239-5.275-.348-7.913.04.203.082.405.124.608-.087-1.24-.171-2.483-.26-3.73C10.47 676.827 8.723 624.816 7 572.53c-.43-14.006-.86-28.031-1.287-42.074-.397-14.042-.743-28.101-1.505-42.187-1.252-28.17-2.507-56.397-3.767-84.658A223.558 223.558 0 0 1 0 392.715c.286-.53.616-.823.989-.823-.241-11.218-.5-22.343-.758-33.469.017-.785.037-1.57.055-2.358.41-15.934 1.187-31.852 2.425-47.426.288-2.98.372-6.512.375-10.283 0-2.936-.055-6.016-.1-9.095l-.094-5.252c-.072-1.733-.144-3.438-.211-5.089a142.455 142.455 0 0 1-.085-4.617c0-1.565.033-3.047.112-4.41 1.66-47.756-1.063-98.14 4.634-142.164l.179-16.9c.412 4.196.559 8.669.559 12.937 0 2.478-.05 4.888-.127 7.133.032.725.104 1.374.226 1.847-.241 1.885-.36 2.808-.482 3.747.345 5.172.492 11.03.492 17.405.01 32.473-3.77 78.299-4.348 114.8a331.66 331.66 0 0 0-.017 3.516c0 2.539.02 5.073.02 7.606 0 2.532-.02 5.062-.107 7.59-.187 6.223-.373 12.43-.562 18.624.857-4.328 2.41-11.042 2.803-16.609l.243-5.061c.015-1.695.028-3.399.045-5.109.02-3.42.037-6.866.055-10.325.047-6.916.094-13.88.134-20.784.144-13.806.447-27.365 1.262-39.799.658 12.02 1.84 23.475 1.836 36.239-.005 7.62-1.622 15.411-1.617 21.468.124 4.12.163 6.62.163 9.086 0 13.317-1.09 25.642-1.8 37.812-.654 10.708-1.186 21.29-1.188 32.316-.003 3.83.062 7.713.206 11.675.05 2.788 1.033 4.641 1.1 7.192.318-17.467 1.22-34.013 2.19-50.631l1.468-25.56c.27-5.663.315-11.387.315-17.215 0-2.496-.007-5.013-.007-7.551a1145.21 1145.21 0 0 0-.84-17.028c.395-5.133.656-9.884.678-13.98a293.591 293.591 0 0 1-.027-4.383c.005-37.147 5.757-45.571 5.764-79.134 0-2.635-.037-5.425-.112-8.395-.005 9.707-1.31 22.263-2.88 34.042-1.291 11.777-2.899 22.774-3.903 29.367.323-25.364 2.99-76.395 3.459-106.113.69-36.231-.313-31.32 2.52-63.042.295-4.728.02-34.512.02-34.512s3.453 25.988 3.301 38.43c-3.652 39.846-1.88 91.138-2.07 99.744.269 1.251 2.09-9.605 3.707-28.88C20.949 97.624 17.062 0 17.062 0H24v783z"/>
</svg>
