<?xml version="1.0" encoding="utf-8"?>
<!-- Generator: Adobe Illustrator 16.0.0, SVG Export Plug-In . SVG Version: 6.00 Build 0)  -->
<!DOCTYPE svg PUBLIC "-//W3C//DTD SVG 1.1//EN" "http://www.w3.org/Graphics/SVG/1.1/DTD/svg11.dtd">
<svg version="1.1" id="Capa_1" xmlns="http://www.w3.org/2000/svg" xmlns:xlink="http://www.w3.org/1999/xlink" x="0px" y="0px"
	 width="120px" height="120px" viewBox="0 0 120 120" enable-background="new 0 0 120 120" xml:space="preserve">
<g>
	<g>
		<path fill="#010002" d="M60.002,120C26.918,120,0,93.082,0,59.998S26.918,0,60.002,0S120,26.914,120,59.998
			C119.996,93.082,93.082,120,60.002,120z M60.002,6.854C30.7,6.854,6.858,30.696,6.858,59.998s23.838,53.141,53.144,53.141
			c29.302,0,53.141-23.839,53.141-53.141S89.304,6.854,60.002,6.854z"/>
	</g>
</g>
<g>
	<path d="M49.228,47.862l-8.64,8.639c-3.185,3.188-6.39,6.367-9.554,9.587c-0.747,0.767-1.309,1.789-1.528,2.781
		c-1.145,5.265-2.255,10.521-3.364,15.775l-0.618,2.914c-0.292,1.421,0.091,2.842,1.053,3.803c0.747,0.746,1.784,1.166,2.878,1.166
		c0.307,0,0.618-0.042,0.925-0.093l3.2-0.674c5.097-1.074,10.209-2.168,15.3-3.221c1.186-0.256,2.188-0.777,3.042-1.636
		c14.298-14.324,28.601-28.62,42.9-42.902c1.053-1.053,1.636-2.311,1.778-3.854c0.021-0.256,0-0.512-0.052-0.747
		c-0.091-0.363-0.163-0.747-0.255-1.109c-0.199-0.931-0.419-1.984-0.854-3.001l0,0c-2.673-6.114-7.115-10.479-13.188-12.938
		c-1.223-0.491-2.515-0.655-3.64-0.797l-0.313-0.041c-1.636-0.2-3.128,0.348-4.421,1.656C65.693,31.396,57.453,39.636,49.228,47.862
		z M77.701,25.901c0.036,0,0.051,0,0.092,0l0.308,0.036c0.945,0.113,1.819,0.22,2.51,0.511c4.948,1.999,8.588,5.567,10.79,10.586
		c0.251,0.583,0.42,1.33,0.583,2.111c0.052,0.292,0.123,0.583,0.18,0.874c-0.072,0.327-0.199,0.547-0.455,0.783
		C77.389,55.085,63.092,69.4,48.793,83.704c-0.241,0.235-0.456,0.348-0.783,0.419c-5.112,1.073-10.208,2.147-15.32,3.221
		l-2.694,0.563l0.511-2.383c1.11-5.244,2.219-10.499,3.349-15.744c0.036-0.164,0.179-0.42,0.343-0.594
		c3.169-3.21,6.333-6.389,9.518-9.559l8.639-8.637c8.241-8.24,16.486-16.481,24.706-24.742
		C77.41,25.957,77.573,25.901,77.701,25.901z"/>
</g>
<line fill="none" stroke="#000000" stroke-width="3" stroke-miterlimit="10" x1="35.547" y1="65.834" x2="52.5" y2="82.167"/>
</svg>
