<svg xmlns="http://www.w3.org/2000/svg" width="32" height="32" viewBox="0 0 32 32">
    <g fill="none" fill-rule="evenodd">
        <path fill="#A7A8A9" d="M16 32c8.836 0 16-7.163 16-16 0-8.836-7.164-16-16-16C7.163 0 0 7.164 0 16c0 8.837 7.163 16 16 16"/>
        <path fill="#FFFFFE" d="M12 13.483h1.715v-1.666c0-.735.018-1.867.551-2.57C14.83 8.506 15.6 8 16.928 8 19.09 8 20 8.308 20 8.308l-.428 2.54s-.714-.206-1.381-.206-1.263.238-1.263.904v1.937h2.733l-.191 2.48h-2.542v8.616h-3.213v-8.616H12v-2.48"/>
    </g>
</svg>
