<svg xmlns="http://www.w3.org/2000/svg" xmlns:xlink="http://www.w3.org/1999/xlink" width="200" height="200" viewBox="0 0 200 200">
    <defs>
        <path id="a" d="M0 0h200v200H0z"/>
    </defs>
    <g fill="none" fill-rule="evenodd">
        <mask id="b" fill="#fff">
            <use xlink:href="#a"/>
        </mask>
        <use fill="#D0ACEF" xlink:href="#a"/>
        <path fill="#BB8AE6" d="M100 129.136c-26.735 0-38.243-36.385-35.944-47.744 29.385-25.712 55.406-23.937 55.406-23.937s4.665 14.575 16.66 32.158c-2.108 17.33-19.561 39.523-36.123 39.523zm.015 44.32L71.93 159.063l14.568-23.1c3.948 2.025 9.15 3.173 13.501 3.173 4.367 0 9.479-1.17 13.443-3.216l14.533 23.147-27.96 14.39zm80.77 34.743a421.158 421.158 0 0 0-.823-4.702c-3.268-17.905-8.604-46.372-28.978-61.76 1.505-10.025 2.273-25.608 2.273-48.79 0-37-23.852-66.947-53.258-66.947-20.05 0-32.802 14.292-32.802 14.292-12.42 12.276-20.455 31.27-20.455 52.73 0 23.113.804 38.7 2.269 48.686-20.468 15.242-25.707 43.94-28.974 61.854a395.312 395.312 0 0 0-.82 4.696c-1.4 8.276 4.136 16.12 12.357 17.527.856.147 1.708.215 2.548.215l52.862-.013.003-.01 78.886-.036c.843 0 1.693-.068 2.548-.217 8.224-1.405 13.758-9.249 12.364-17.525z" mask="url(#b)"/>
    </g>
</svg>
