<svg xmlns="http://www.w3.org/2000/svg" width="150" height="50" viewBox="0 0 150 50">
    <g fill="none" fill-rule="evenodd">
        <path fill="#00843D" d="M26.628 8.51c1.823-3.266 4.29-5.493 7.39-6.701 1.895-.755 3.755-1.077 5.54-1.006 1.909.083 4.005.299 5.974 1.34 2.144 1.126 3.62 2.849 4.71 4.465 1.104 1.605 1.785 3.649 2.073 6.128.272 2.465.085 4.619-.548 6.462a28.123 28.123 0 0 1-2.367 5.11c-.93 1.568-2.17 3.125-3.695 4.68-.904.91-2.366 2.274-4.411 4.094-.93.837-2.405 2.118-4.451 3.854-1.798 1.52-3.112 2.68-3.98 3.494a37.593 37.593 0 0 0-6.271 7.433 36.962 36.962 0 0 0-6.235-7.445c-.869-.801-2.195-1.962-3.98-3.482a261.248 261.248 0 0 1-4.45-3.854c-2.044-1.82-3.52-3.184-4.412-4.105-1.526-1.544-2.752-3.112-3.694-4.68a28.295 28.295 0 0 1-2.369-5.111C.821 17.355.634 15.2.92 12.724c.271-2.467.955-4.511 2.057-6.128C4.07 4.98 5.21 3.64 7.354 2.502c1.97-1.028 4.4-1.616 6.31-1.7 1.784-.082 3.631.252 5.54.994 3.1 1.209 5.567 3.448 7.425 6.715"/>
        <path fill="#FFD100" d="M14.197 1.581c-.167 0-.333.004-.498.012-1.95.085-4.24.702-5.98 1.61-1.94 1.031-3.004 2.232-4.087 3.835-1.02 1.497-1.669 3.439-1.927 5.773-.268 2.333-.1 4.39.495 6.117a27.633 27.633 0 0 0 2.3 4.965c.922 1.536 2.127 3.06 3.577 4.528.845.873 2.234 2.164 4.375 4.07.868.772 2.343 2.065 4.437 3.842 1.781 1.517 3.128 2.696 4.003 3.504a38.173 38.173 0 0 1 5.703 6.591 38.731 38.731 0 0 1 5.734-6.58c.926-.869 2.312-2.087 4.003-3.516a225.823 225.823 0 0 0 4.432-3.838c1.93-1.717 3.443-3.12 4.38-4.062 1.496-1.527 2.701-3.051 3.576-4.527a27.135 27.135 0 0 0 2.3-4.969c.594-1.727.765-3.785.508-6.113-.273-2.352-.925-4.294-1.938-5.767-1.348-1.998-2.753-3.335-4.426-4.213-1.82-.962-3.787-1.169-5.64-1.25a11.06 11.06 0 0 0-.45-.009c-1.562 0-3.165.323-4.765.96-2.925 1.14-5.275 3.276-6.99 6.352l-.684 1.226-.694-1.22c-1.786-3.139-4.085-5.222-7.026-6.369-1.624-.632-3.212-.952-4.718-.952zm12.39 47.753l-.664-1.049a36.423 36.423 0 0 0-6.103-7.286c-.86-.794-2.19-1.959-3.956-3.462a261.772 261.772 0 0 1-4.463-3.865c-2.17-1.932-3.587-3.249-4.455-4.145-1.533-1.552-2.814-3.176-3.804-4.823a29.314 29.314 0 0 1-2.436-5.257C.031 17.492-.16 15.2.133 12.634.42 10.043 1.157 7.86 2.324 6.15c1.183-1.752 2.43-3.163 4.658-4.346C8.92.793 11.463.108 13.627.013c1.862-.087 3.851.264 5.862 1.046 2.877 1.122 5.272 3.114 7.134 5.931 1.826-2.802 4.212-4.789 7.107-5.918C35.685.294 37.667-.064 39.59.013c2.041.089 4.216.324 6.311 1.431 1.885.99 3.52 2.534 4.996 4.722 1.157 1.682 1.9 3.864 2.202 6.479.284 2.566.086 4.856-.585 6.81-.675 1.923-1.47 3.641-2.435 5.258-.939 1.583-2.22 3.209-3.81 4.83-.964.968-2.5 2.395-4.45 4.129-.978.88-2.523 2.219-4.465 3.866-1.67 1.414-3.037 2.613-3.95 3.469a37.044 37.044 0 0 0-6.148 7.283l-.67 1.044z"/>
        <path fill="#337147" d="M64.332 10.116c-1.242 0-1.855 1.292-1.855 2.402 0 1.274.613 2.434 1.855 2.434 1.275 0 1.871-1.193 1.871-2.352 0-1.159-.563-2.484-1.87-2.484zm4.255 6.127c0 2.865-1.87 4.305-4.586 4.305-.977 0-3.759-.48-3.759-1.788 0-.447.497-1.043.96-1.043.762 0 1.607.745 2.981.745 1.16 0 2.02-.679 2.02-1.888v-.563h-.033c-.497.73-1.308 1.126-2.4 1.126-2.502 0-3.677-2.202-3.677-4.57 0-2.4 1.523-4.637 3.924-4.637.812 0 1.74.365 2.186 1.094.15-.63.53-.994 1.192-.994.696 0 1.192.53 1.192 1.324v6.89zM69.996 9.222c0-.795.63-1.192 1.225-1.192.63 0 1.16.232 1.16.994h.033c.447-.663.927-.994 1.673-.994.579 0 1.158.414 1.158 1.275 0 .778-.712.828-1.424 1.16-.712.331-1.44.645-1.44 1.588v3.66c0 .795-.497 1.325-1.193 1.325-.695 0-1.192-.53-1.192-1.325v-6.49zM81.704 11.74c-.132-1.044-.794-1.822-1.904-1.822-1.06 0-1.772.811-1.888 1.821h3.791zm-3.742 1.59c.165 1.174 1.142 1.721 2.251 1.721 1.226 0 2.07-.96 2.7-.96.513 0 .977.512.977 1.026 0 1.027-2.12 2.02-3.891 2.02-2.683 0-4.471-1.954-4.471-4.587 0-2.417 1.754-4.62 4.271-4.62 2.583 0 4.29 2.352 4.29 4.34 0 .711-.316 1.06-1.044 1.06H77.96zM91.093 11.74c-.132-1.044-.795-1.822-1.905-1.822-1.059 0-1.77.811-1.887 1.821h3.792zm-3.742 1.59c.165 1.174 1.142 1.721 2.252 1.721 1.225 0 2.07-.96 2.7-.96.512 0 .976.512.976 1.026 0 1.027-2.12 2.02-3.892 2.02-2.682 0-4.47-1.954-4.47-4.587 0-2.417 1.755-4.62 4.271-4.62 2.584 0 4.29 2.352 4.29 4.34 0 .711-.315 1.06-1.044 1.06h-5.083zM94.571 9.354c0-.793.497-1.324 1.192-1.324.612 0 1.011.332 1.093.878.463-.646 1.176-.977 2.302-.977 1.871 0 3.262 1.192 3.262 3.212v4.57c0 .795-.497 1.325-1.192 1.325-.696 0-1.193-.53-1.193-1.325v-4.156c0-1.11-.695-1.64-1.556-1.64-.977 0-1.523.713-1.523 1.64v4.156c0 .795-.497 1.325-1.193 1.325-.695 0-1.192-.53-1.192-1.325V9.355zM103.862 5.513c0-.795.497-1.325 1.192-1.325s1.193.53 1.193 1.325v3.246h.033c.496-.613 1.424-.828 2.169-.828 1.87 0 3.263 1.192 3.263 3.212v4.57c0 .795-.498 1.325-1.193 1.325-.695 0-1.193-.53-1.193-1.325v-4.156c0-1.11-.695-1.64-1.556-1.64-.977 0-1.523.713-1.523 1.64v4.156c0 .795-.498 1.325-1.193 1.325-.695 0-1.192-.53-1.192-1.325v-10.2zM118.981 11.74c-.132-1.044-.795-1.822-1.904-1.822-1.06 0-1.772.811-1.888 1.821h3.792zm-3.742 1.59c.166 1.174 1.142 1.721 2.251 1.721 1.226 0 2.071-.96 2.7-.96.513 0 .977.512.977 1.026 0 1.027-2.12 2.02-3.891 2.02-2.683 0-4.471-1.954-4.471-4.587 0-2.417 1.755-4.62 4.272-4.62 2.583 0 4.289 2.352 4.289 4.34 0 .711-.315 1.06-1.044 1.06h-5.083zM126.55 14.952c1.241 0 1.837-1.258 1.837-2.402 0-1.142-.58-2.434-1.838-2.434-1.308 0-1.888 1.292-1.888 2.434 0 1.144.596 2.402 1.888 2.402zm4.221.53c0 .612 0 1.556-1.142 1.556-.695 0-.977-.381-1.143-1.01-.612.729-1.357 1.11-2.268 1.11-2.236 0-3.94-1.905-3.94-4.588 0-2.616 1.753-4.62 3.94-4.62.878 0 1.74.348 2.268 1.094.066-.58.563-.994 1.143-.994 1.142 0 1.142.944 1.142 1.557v5.895zM132.18 9.222c0-.795.63-1.192 1.226-1.192.629 0 1.159.232 1.159.994h.033c.447-.663.928-.994 1.673-.994.579 0 1.159.414 1.159 1.275 0 .778-.713.828-1.425 1.16-.712.331-1.44.645-1.44 1.588v3.66c0 .795-.497 1.325-1.193 1.325-.695 0-1.192-.53-1.192-1.325v-6.49zM139.805 10.216h-.53c-.646 0-1.044-.397-1.044-1.043a1.02 1.02 0 0 1 1.044-1.043h.53V6.705c0-.795.496-1.325 1.192-1.325.695 0 1.192.53 1.192 1.325V8.13h.679c.613 0 1.143.281 1.143 1.042 0 .745-.53 1.043-1.143 1.043h-.68v5.498c0 .795-.496 1.325-1.191 1.325-.696 0-1.192-.53-1.192-1.325v-5.497zM66.489 30.687c0-1.287-.745-2.777-2.387-2.777-1.845-.067-2.506 1.406-2.556 2.777h4.943zm-4.943 1.117c0 1.54.98 2.743 2.658 2.743 1.98 0 2.488-1.22 3.047-1.22.27 0 .542.238.542.66 0 .729-1.846 1.847-3.606 1.847-2.878 0-4.131-2.218-4.131-4.605 0-2.438 1.524-4.605 4.046-4.605 2.455 0 3.877 2.218 3.877 4.385 0 .524-.186.795-.83.795h-5.603zM71.484 30.958l-2.336-3.064c-.186-.237-.254-.44-.254-.593 0-.372.27-.677.626-.677.339 0 .49.152.644.339l2.183 2.912 2.184-2.912c.153-.187.305-.34.643-.34.356 0 .627.306.627.678 0 .153-.068.356-.254.593l-2.336 3.064 2.658 3.488c.237.32.304.54.304.71a.668.668 0 0 1-.677.678.803.803 0 0 1-.66-.34l-2.49-3.453-2.487 3.454a.805.805 0 0 1-.66.339.67.67 0 0 1-.678-.678c0-.17.068-.39.305-.71l2.658-3.488zM80.931 26.624c1.524 0 2.421.525 2.421 1.134 0 .305-.254.627-.61.627-.575 0-.795-.474-1.81-.474-1.846 0-2.574 1.794-2.574 3.318 0 1.523.728 3.318 2.573 3.318 1.05 0 1.321-.508 1.794-.508.34 0 .576.22.576.626 0 .559-.83 1.169-2.37 1.169-2.743 0-4.063-2.218-4.063-4.605 0-2.387 1.32-4.605 4.063-4.605M90.429 30.128c0-1.575-1.1-2.218-2.082-2.218-.982 0-2.082.643-2.082 2.218v4.91c0 .49-.288.795-.745.795s-.745-.305-.745-.796V23.458c0-.49.288-.796.745-.796s.745.305.745.796v4.317l.033.034c.66-.847 1.592-1.185 2.489-1.185 1.388 0 3.132.88 3.132 3.42v4.993c0 .491-.288.796-.745.796s-.745-.305-.745-.796v-4.909zM97.455 34.547c1.828 0 2.472-1.794 2.472-3.318s-.644-3.318-2.472-3.318c-1.828 0-2.47 1.794-2.47 3.318s.642 3.318 2.47 3.318zm3.877.559a.691.691 0 0 1-.694.728c-.305 0-.694-.204-.694-.728v-.627h-.034c-.643.915-1.49 1.355-2.455 1.355-2.539 0-3.96-2.218-3.96-4.605 0-2.387 1.421-4.605 3.96-4.605 1.033 0 1.761.44 2.455 1.202h.034v-.474c0-.525.39-.728.694-.728a.69.69 0 0 1 .694.728v7.754zM103.297 27.42c0-.491.288-.796.745-.796s.745.305.745.796v.355l.034.034c.66-.846 1.591-1.185 2.488-1.185 1.388 0 3.132.88 3.132 3.42v4.994c0 .49-.288.796-.745.796s-.745-.305-.745-.796v-4.91c0-1.574-1.1-2.217-2.082-2.217-.982 0-2.082.643-2.082 2.218v4.909c0 .49-.288.796-.745.796s-.745-.305-.745-.796V27.42zM115.978 34.547c1.828 0 2.472-1.794 2.472-3.318s-.644-3.318-2.472-3.318c-1.828 0-2.471 1.794-2.471 3.318s.643 3.318 2.47 3.318zm3.809.542c0 2.675-1.625 4.3-4.063 4.3-1.54 0-3.453-.88-3.453-1.642 0-.305.152-.694.626-.694.677 0 1.337 1.049 2.946 1.049 1.896 0 2.454-1.49 2.454-2.776v-.78h-.034c-.457.78-1.27 1.288-2.285 1.288-2.54 0-3.961-2.218-3.961-4.605 0-2.387 1.422-4.605 3.96-4.605.966 0 1.897.593 2.286 1.135h.034v-.407c0-.525.39-.728.796-.728a.69.69 0 0 1 .694.728v7.737zM127.711 30.687c0-1.287-.745-2.777-2.387-2.777-1.845-.067-2.506 1.406-2.556 2.777h4.943zm-4.943 1.117c0 1.54.982 2.743 2.658 2.743 1.98 0 2.488-1.22 3.047-1.22.271 0 .541.238.541.66 0 .729-1.845 1.847-3.605 1.847-2.878 0-4.13-2.218-4.13-4.605 0-2.438 1.523-4.605 4.045-4.605 2.455 0 3.877 2.218 3.877 4.385 0 .524-.187.795-.83.795h-5.603zM148.327 4.876c-.1-.056-.26-.084-.482-.084h-.341v.82h.36c.17 0 .296-.017.38-.051.156-.062.234-.18.234-.354 0-.164-.05-.275-.15-.331zm-.43-.357c.28 0 .487.028.618.082.234.097.35.288.35.573 0 .203-.073.352-.22.447a.856.856 0 0 1-.328.11c.177.028.308.102.39.22.082.12.123.238.123.352v.165c0 .053.001.109.004.169a.374.374 0 0 0 .02.117l.014.028h-.373l-.006-.022a.47.47 0 0 1-.006-.025l-.007-.073v-.18c0-.26-.071-.433-.214-.517-.084-.048-.232-.073-.444-.073h-.315v.89h-.397V4.519h.792zm-1.212-.115a1.714 1.714 0 0 0-.518 1.255c0 .495.172.916.514 1.264a1.7 1.7 0 0 0 1.255.522c.493 0 .91-.174 1.255-.522.345-.348.517-.77.517-1.264 0-.49-.172-.908-.517-1.255a1.706 1.706 0 0 0-1.255-.522 1.7 1.7 0 0 0-1.251.522zm2.712 2.715a1.983 1.983 0 0 1-1.46.607 1.971 1.971 0 0 1-1.458-.607 2 2 0 0 1-.598-1.462c0-.568.202-1.052.603-1.455.401-.4.885-.601 1.452-.601.571 0 1.058.2 1.46.6.403.402.604.887.604 1.456 0 .57-.202 1.058-.603 1.462z"/>
    </g>
</svg>
