<svg xmlns="http://www.w3.org/2000/svg" xmlns:xlink="http://www.w3.org/1999/xlink" width="200" height="200" viewBox="0 0 200 200">
    <defs>
        <path id="a" d="M0 0h200v200H0z"/>
    </defs>
    <g fill="none" fill-rule="evenodd">
        <mask id="b" fill="#fff">
            <use xlink:href="#a"/>
        </mask>
        <use fill="#B9E0F6" xlink:href="#a"/>
        <path fill="#7EAFD7" d="M64.91 78.684c29.876 1.295 47.564-10.575 57.18-20.865 9.121 8.995 13.864 20.375 16.267 28.822 0 .25.023.483.023.74 0 22.76-16.437 50.241-36.873 50.241-20.435 0-36.876-27.481-36.876-50.242 0-3.124.082-6.016.28-8.696m-3.567 34.156c-5.6-.87-10.925-5.166-11.76-15.293-.818-9.654 2.424-13.613 6.546-15.167.686-17.74 5.022-28.67 11.418-35.416 3.973-5.123 10.649-10.101 14.94-12.697 33.783-20.42 51.085 8.68 51.085 8.68s23.16 6.636 14.767 40.54c3.005 2.086 5.064 6.149 4.398 14.08-.796 9.66-5.707 14.024-11.031 15.15-7.533 18.311-22.496 33.41-40.2 33.41-17.668 0-32.607-15.034-40.163-33.287zm81.757 31.802c21.787 5.066 36.918 23.29 36.899 44.2v27.436c0 5.403-4.402 9.722-10.216 9.722H79.009l-.002-.023H32.652c-5.799 0-10.652-4.296-10.652-9.699v-27.436c0-20.91 15.349-39.134 37.113-44.2l12.857-2.979.013.062.598-.062c0 12.857 12.724 23.28 28.417 23.28 15.697 0 28.42-10.423 28.42-23.28l1.014.02.004-.02 12.665 2.98z" mask="url(#b)"/>
    </g>
</svg>
