<svg xmlns="http://www.w3.org/2000/svg" xmlns:xlink="http://www.w3.org/1999/xlink" width="368" height="19" viewBox="0 0 368 19">
    <defs>
        <path id="a" d="M0 0h368v20H0z"/>
    </defs>
    <g fill="none" fill-rule="evenodd" transform="translate(0 -1)">
        <mask id="b" fill="#fff">
            <use xlink:href="#a"/>
        </mask>
        <path fill="#FEFEFE" d="M705.46 10.446c-4.43 0-8.764-.036-12.954-.114-7.746-.107-15.43-.21-23.167-.312-21.953-.872-43.025-1.759-64.724-2.423-9.681-.21-19.332-.422-28.95-.631m0 0c-17.854-.386-35.61-.77-53.31-1.155-6.81-.125-13.61-.31-20.404-.373l-20.362-.136c-13.562-.085-27.103-.165-40.644-.252L277.6 3.884c42.59-.361 84.974-.589 127.192-.711l63.203-.114c10.513 0 21.016 0 31.516-.002 10.496.007 20.992.252 31.474.37 83.872 1.206 167.2 2.734 250.302 4.384 166.121 2.21 331.431 4.838 498.241 6.272-26.466.441-53.267.836-80.662.98-12.153.028-24.219.043-36.215.043-26.39-.002-52.435-.071-78.247-.19-62.068-1.12-121.958-2.773-183.118-4.02-61.174-1.268-123.618-2.01-190.896-2.376 26.038.278 49.811.856 72.24 1.618 22.42.62 43.499 1.41 64.157 2.275-20.648-.288-41.257-.573-61.863-.863-20.616-.424-41.233-.845-61.898-1.271-5.99.107-11.867.167-17.568.167M1485.731 22v-9.289c0-.062-17.61-1.059-39.152-1.06-13.816 0-27.698.093-41.681.244-6.038-.162-22.77.301-29.254.393-6.661-.107-13.322-.214-19.983-.312.511.035 1.023.073 1.535.111-3.133-.078-6.272-.154-9.418-.234-130.167-1.996-261.511-3.563-393.551-5.108-35.369-.386-70.786-.772-106.249-1.155-35.459-.357-70.963-.667-106.534-1.351-71.14-1.124-142.421-2.25-213.788-3.38-9.136-.22-18.313-.337-27.514-.397-1.337.256-2.078.553-2.078.887-28.328-.216-56.423-.448-84.519-.68l-5.954.049c-40.237.368-80.437 1.066-119.766 2.176-7.524.259-16.443.335-25.968.337-7.413 0-15.191-.05-22.966-.09l-13.263-.084c-4.378-.065-8.683-.13-12.852-.19-4.033-.049-7.942-.073-11.658-.075-3.954 0-7.695.029-11.137.1-120.6 1.49-247.834-.954-359.007 4.158l-42.677.16c10.593.37 21.89.502 32.668.502 6.257 0 12.344-.044 18.013-.113 1.83.029 3.47.093 4.663.203l9.463-.433c13.06.31 27.855.442 43.954.442 82.002.009 197.728-3.383 289.906-3.902 2.958-.012 5.92-.016 8.878-.016 6.41 0 12.81.018 19.207.018 6.393 0 12.782-.018 19.165-.096 15.716-.167 31.39-.334 47.034-.504-10.931.77-27.886 2.163-41.943 2.515l-12.782.219c-4.28.013-8.582.024-12.901.04-8.638.018-17.338.033-26.073.049-17.467.042-35.052.085-52.488.12-34.864.13-69.105.402-100.503 1.133 30.354.59 59.28 1.652 91.514 1.648 19.242-.005 38.918-1.456 54.214-1.452 10.402.112 16.715.147 22.944.147 33.629 0 64.755-.979 95.488-1.616 27.04-.587 53.765-1.064 81.606-1.066 9.675-.002 19.478.056 29.484.185 7.04.045 11.72.928 18.163.988-44.111.285-85.894 1.095-127.86 1.964l-64.547 1.318c-14.3.243-28.756.283-43.474.283-6.302 0-12.657-.007-19.067-.007-18.943-.283-30.63-.51-43.001-.753-12.964.354-24.96.588-35.306.608-3.804-.02-7.49-.024-11.067-.024-93.807.004-115.081 5.166-199.836 5.173-6.654 0-13.702-.034-21.201-.1 24.514-.005 56.221-1.176 85.966-2.585 29.741-1.16 57.513-2.602 74.162-3.503-64.052.29-192.922 2.683-267.968 3.104-91.496.62-79.093-.28-159.202 2.261-11.939.265-87.152.019-87.152.019s65.627 3.098 97.046 2.962c100.625-3.277 230.152-1.688 251.886-1.857 3.16.24-24.255 1.875-72.932 3.326-29.472.852-276-2.636-276-2.636V22" mask="url(#b)"/>
    </g>
</svg>
