<svg xmlns="http://www.w3.org/2000/svg" width="915" height="272" viewBox="0 0 915 272">
    <path fill="#8AC53F" fill-opacity=".15" fill-rule="evenodd" d="M246 71c-5.308-.21-11.02-2.743-16 1 3.67 5.203 9.557 4.311 14 4 18.476.042 39.387 3.396 55 3-1.266-.426-2.507-.884-4 0-14.52-6.913-32.739-5.695-49-8zm388-46c-10.514.729-20.467-5.635-32 1 9.242 4.808 22.151-.828 32-1zm-28 46c-5.642-.667-12.318-4.037-18 0-1.199 1.148-1.89 5.658-4 7 30.695.142 54.359 6.95 86 2-2.572.794-4.638-.92-5-4-3.137-.202-6.79.163-9-2 .925-1.16 2.514 1.628 3-1-4.818 1.533-8.318-4.077-12 0 .943 1.379 3.624-1.607 4 2-6.76-1.99-14.647-.19-20-4-7.617.446-16.102.14-25 0zm101-28c-10.18-.852-23.726.811-34 3 11.988-.46 22.6 1.351 34-3zm-62 27c-.563.838-2.186-.179-2 2 1.27-1.132 1.832 1.602 2-2zm43 0c-3.449.651-8.062-1.2-11 2 3.704-1.73 7.67 2.181 11-2zm8 2c-4.225 1.823-10.497 1.494-15 2 8.92 1.249 25.538 2.355 36-3-6.156-.07-11.097-1.015-17 1 1.095-1.91.164-.7 0-2-4.556 1.315-7.173-1.292-10 2 1.51.133 4.635-2.298 6 0zm86-25c-1.767.434-4.726-.785-6 1 1.919-.6 4.756.84 6-1zM601 88c8.462.62 18.704 2.118 27 0-9.06.383-20.237-4.58-27 0zm138-16c-.011.722-.19 1.452 0 3 2.68-1.136 5.327-1.556 7 0-2.358 1.424-9.365 1.4-10-2 .268-2.044 1.836.58 3-1zm-91 39c-15.328-3.902-33.268-6.067-51-1-.683 2.851 1.179 4.879 1 9 4.919 1.704 12.208 2.796 17 1-2.587-2.452-8.468 2.631-9-6 14.572.668 28.226 1.15 42 2 .182-3.531-1.826-1.063-2-4 .937-.292 1.954-.204 2-1zm48-25c-5.172-.066-8.866-.082-15 1 3.933 2.604 11.112 3.001 15-1zm32 5c-3.7-.882-10.703-3.486-13-1 3.105 3.075 9.715 1.936 13 1zm-105 31c.678-1.396 1.836 1.671 2-1-.275-.873-2.036-1.837-2 1zm-6-1c1.576-1.142 3.36.96 4-1-1.03.428-3.461-.694-4 1zm33 19c-10.75-1.49-24.929-5.22-35-1 11.09 1.488 23.174 2.975 35 1zm-18 22c-1.293.731-3.346-.998-4 1 1.539-1.079 3.307 1.138 4-1zm136-39c-1.539 1.08-3.305-1.13-4 1 1.292-.727 3.346.995 4-1zm4 0c-.917.19-3.464-.88-4 2 1.574-2.119 3.27 1.708 4-2zm4-1c-1.136.705-1.542-.657-3 0-.406 3.315 3.1 1.58 3 0zm10 1c-2.425.368-6.367-.572-8 1 2.075-.151 7.725.522 8-1zm7 1c-.278.07-2.037-.462-2 1 .914-1.126 1.836 1.018 2-1zm-157 73c-11.99-5.764-24.824-3.925-38-3 9.896 8.315 24.087 3.315 37 5 .147-1.16.965-1.1 1-2zm77-35c-1.033.013-3.092-2.664-4 1 1.66-2.178 3.312 1.711 4-1zm-90 49c-11.842-2.132-24.247-7.911-34-3 15.697 3.605 31.933 6.256 48 4-4.418-1.488-9.222-.806-14-1zm220-37c-17.79-.942-34.182-6.472-50-7 16.389 4.164 33.054 8.223 50 7zm3 0c-.564-.717-1.441-.202-2-1-.197 3.052 2.25 1.92 2 1zm-209 61c7.003.377 14.148 2.762 21-1-.044-.712.09-1.28 0-2-30.427-3.577-63.42-12.325-95 2 3.902 1.603 8.05 1.539 12 1 13.402-.09 27.245-1.647 41-1 7.34-.176 14.312.17 21 1zm172-15c-4.139-1.642-9.964-3.923-14-3 3.94 2.3 10.233 3.49 14 3zM75 14c2.454-1.745 4.684-5.492 7-7 7.271-3.116 14.265-1.988 22-2 12.138 1.183 25.47.927 36 3 12.321 2.26 25.13 1.763 37 0 5.843-1.012 12.017-5.084 18-1-2.077 1.871-5.305 2.134-8 3-.645 1.835-.507 4.572 0 8 .957 1.518 3.203.788 5 1-.122 2.356.87 1.835 1 4 9.849 4.78 20.853-.4 32-4 6.714-1.648 14.042.09 21 1 19.373.971 38.247 4.261 59-3-6.827-3.286-15.174-2.257-21-7 9.894-6.53 23.21-.157 33-2 .096 2.709-.95 3.297-2 4 1.348 1.295 1.425 2.092 2 4 1.73 1.375 1.001-1.202 3-2 20.277 2.342 42.525 2.474 64-1 8.483-1.297 16.452-5.349 24-8 7.655-2.428 14.38-5.264 23-5 35.719 1.279 75.575 2.666 110 7 5.332 7.493 13.33 5.186 22 6 25.877 3.362 56.807 2.786 85 4 17.142.739 33.696 3.715 53 1 3.105-.458 7.293-.66 11 0 9.128.09 18.663 1.824 28 3 17.852 2.401 35.872 5.764 56 3 8.233-.925 16.504 1.782 25 2 8.487.953 14.775-1.071 24 1 10.87 3.342 23.55 7.127 36 9 7.302 1.188 14.08-2.294 18 9 2.161-.186 4.497.45 6 2 .495 3.12-.67 4.265 0 7-8.84 8.714-20.307 2.12-30 4 10.22 5.023 24.151 2.425 35 6 1.327 6.992-4.788 5.376-5 11 3.322 2.058 8.67-4.571 10 4-13.866 13.183-29.01.017-42 10-1.417.783-2.193 3.458-4 4-5.219 2.606-14.355-2.013-21-3-7.457-1.768-14.406-.678-21-3-1.97-.578-3.678-3.751-6-5-10.386-4.066-21.074-.02-32-1 6.231-2.283 13.214-2.206 20-2-15.531-8.01-36.72-1.984-54-6-.072 1.168-3.295 3.946-2 2 2.276-1.81-5.48-3.48-6 0 11.267 3.238 24.258 3.243 36 6-18.327-.026-38.475-4.088-58-5-1.602-.696-.48 2.308-2 2-1.793.571.165-2.943-2-2-5.113 2.302-12.5 1.254-20 1-7.373.606-15.117.21-22 0 3.552 11.235 9.045 2.269 16 3 5.059 1.093 11.136 4.25 18 5 3.97.392 8.92.488 14 1 6.187.479 11.754-.214 17-1 3.43-.686 5.457 2.418 9 3 7.059.177 12.582-2.644 18 1-5.23 3.447-12.172-.358-16 3 1.436 4.511 5.892 1.23 8 1 13.259-.746 29.623 4.62 44 2 1.05 4.002 4.742.708 6 2 .302-2.088.902-2.755 3-3-4.15-2.651-9.864-2.342-15-4 4.963-1.618 9.575.623 15 1 14.865.497 31.045-.833 43 6 1.56 1.304 1.694 4.775 3 6 12.847 1.764 25.198 5.531 39 3 1.363 2.163 2.431 4.932 4 7-.686 2.767-5.164 2.927-5 5-2.044 1.876.184-1.732-2-1-10.346 9.026-19.857-.477-30 6 7.868 1.555 16.036 2.534 25 3-.892 2.564-2.501 4.11-4 6-10.479 4.045-20.19.191-31 2 8.505 3.826 20.596.018 27 10 5.806-.83 10.047-5.082 14-5-3.977 9.145-9.471 13.074-16 16-9.708 3.24-19.076-2.756-28-1-2.886-.087-3.956.975-6 2-14.075 2.743-20.635-4.597-32-9-9.452-3.072-23.13-2.838-35-4-14.55-1.304-33.932.39-50-1-11.502-.842-20.97-3.182-32-2-1.384 1.502 1.48 1.618 2 2-1.452 3.178-4.506 1.52-7 3 19.662 6.761 40.815 6.07 62 7-.28 1.913-1.325 2.507-2 4 10.23 1.147 18.567-.573 28-2-.927-.39-1.88-.885-3-1 19.883-.636 39.59 6.737 59 9-2.823 2.772-6.709-1.01-11 0 5.883 2.416 12.025 5.046 19 6 5.955 1.557 13.37-1.497 18 4-2.836 1.6-6.81 1.112-10 2 4.07.818 7.623 1.653 12 1-.613 1.588-1.69 1.913-2 3 1 2.024 4.984-.85 5 4 .51-.25 2.418-2.36 3-1 1.163 6.227-3.454 4.81-3 9 3.901-.4 7.37.326 10 3-2.496 5.576-9.252 10.311-14 12 4.386 6.447 9.972-2.627 15-4-1.089 15.634-12.807 17.468-17 28 1.087 1.735 2.663-2.328 5-2 1.623 3.44 4.915 9.771 10 5-2.024 2.293-2.55 6.086-4 8-11.998 3.711-24.952 3.442-34-2-12.551 3.456-23.938-1.128-35-4-19.857-4.48-37.85-6.128-59-5-4.125.846-9.784.535-15 1 3.441 1.188 7.484 2.097 12 1 10.512 8.14 27.58-.506 38 6 .442 1.908-1.539 1.131-2 2 24.963 1.199 47.695 7.222 74 8-.663 4.014-3.772 4.663-7 6 6.355 2.936 13.883-1.321 22-1-13.53 8.535-24.11 4.468-37 3-9.552-1.807-19.21-.17-25-8-7.552-.255-13.606-5.434-22-4-1.562 1.728 1.79.33 1 3-15.592-2.623-31.786-.144-49 0-33.967-.387-67.796-6.82-103-2-5.614-3.32-12.2-2.52-19-3-14.926-.556-32.405-3.997-49-1-37.356 6.656-76.07 15.597-114 23-15.85 3.522-30.038 5.29-45 6-27.59-1.23-56.246-10.856-83-15-1.218-.736-2.45-.021-4-1-1.784-.543-3.803-3.966-6-4-14.887-1.436-30.69-6.71-46-11-5.087-.96-10.183-.177-15-1-11.106-1.467-21.211-6.641-32-5 .15-3.159 1.719-2.18 3-2-2.738-3.657-7.622-2.362-12-3-7.632-.213-20.44-3.377-26 10 .833 2.837 2.882-1.15 4 0-12.408 11.174-29.458 14.71-43 19-15.318 3.55-29.472 9.636-43 11-5.435-.151-10.589-2.185-16-3-4.4.07-9.027.793-14-1-3.995-.753-8.523-3.705-13-3-1.344-.138-3.17 1.969-5 2-3.405.88-6.071-.31-9 1-4.588 1.694-11.276 10.526-16 5-2.436 2.296-7.259 5.7-11 3-.63-.53-1.026-3.332-2-4-3.88-2.7-8.525-2.607-11-8-2.14-2.484-2.612-7.458-5-9-1.814-17.888-1.005-30.036 0-43 .53-6.212.025-11.972 1-17 1.208-8.414 4.128-14.596 6-22 .181-1.719-.29-4.616 0-7 .539-1.246 1.921-2.334 2-4 .549-1.393.182-4.164 1-6 .157-3.54 2.145-6.441 2-8 .256-1.202-1.322-5.268-1-8-.777-6.11 1.906-12.975 2-18-.5-5.898-4.038-12.907-1-19-.625-20.769 4.72-39.82 13-51 4.579-13.367 15.752-20.015 26-23 6.575-2.862 13.94-5.994 22-10z"/>
</svg>
