<svg xmlns="http://www.w3.org/2000/svg" width="48" height="40" viewBox="0 0 48 40">
    <path fill="#00A9E0" fill-rule="evenodd" d="M21 4.436c-2.223 1.331-4.02 2.477-5.392 3.438-1.372.961-2.767 2.23-4.186 3.808-1.324 1.479-2.34 3.031-3.05 4.658-.71 1.627-1.206 3.722-1.49 6.285h3.405c2.933 0 5.238.751 6.917 2.255 1.68 1.503 2.519 3.709 2.519 6.617 0 2.07-.745 4.005-2.235 5.804-1.49 1.8-3.535 2.699-6.137 2.699-4.067 0-6.976-1.392-8.726-4.177C.875 33.038 0 29.378 0 24.843c0-3.204.662-6.125 1.986-8.762 1.325-2.637 2.933-4.99 4.825-7.06C8.75 6.9 10.807 5.1 12.983 3.622A237.227 237.227 0 0 1 18.446 0L21 4.436zm27 0c-2.223 1.331-4.02 2.477-5.392 3.438-1.372.961-2.767 2.23-4.186 3.808-1.371 1.528-2.4 3.093-3.086 4.695-.686 1.602-1.17 3.685-1.454 6.248h3.405c2.933 0 5.238.751 6.917 2.255 1.68 1.503 2.519 3.709 2.519 6.617 0 2.07-.745 4.005-2.235 5.804-1.49 1.8-3.535 2.699-6.137 2.699-4.067 0-6.976-1.392-8.726-4.177C27.875 33.038 27 29.378 27 24.843c0-3.204.662-6.125 1.986-8.762 1.325-2.637 2.933-4.99 4.825-7.06 1.939-2.12 3.996-3.92 6.172-5.398A237.227 237.227 0 0 1 45.446 0L48 4.436z"/>
</svg>
