<svg xmlns="http://www.w3.org/2000/svg" width="50" height="50" viewBox="0 0 50 50">
    <g fill="#8AC53F" fill-rule="nonzero">
        <path d="M9.565 32.877l-5.918 3.416a.832.832 0 0 0 .832 1.44l5.918-3.415a.832.832 0 0 0-.832-1.441zM11.645 24.953a.832.832 0 0 0-.832-.831L.832 24.12a.832.832 0 0 0 0 1.663l9.981.001c.46 0 .832-.373.832-.832zM14.253 8.085a.83.83 0 1 0 1.44-.832l-2.08-3.605a.832.832 0 1 0-1.441.832l2.081 3.605zM3.648 13.613l8.413 4.859a.83.83 0 0 0 .832-1.44l-8.413-4.86a.83.83 0 1 0-.832 1.441zM36.708 18.167a.83.83 0 0 0 1.136.305l8.414-4.857a.832.832 0 0 0-.832-1.442l-8.414 4.858a.831.831 0 0 0-.304 1.136zM34.517 8.389a.829.829 0 0 0 1.136-.304l2.08-3.605a.832.832 0 0 0-1.44-.832l-2.08 3.605a.831.831 0 0 0 .304 1.136zM33.532 48.283c-.022-.008-2.326-.787-3.833-2.294-1.494-1.494-2.252-2.975-2.252-4.402V26.616c0-.17.035-1.664 1.248-1.664.892 0 1.245 1.73 1.25 1.729l.832 10.811a.831.831 0 1 0 1.658-.128l-.84-10.885c-.198-1.185-1.03-3.19-2.9-3.19-2.303 0-2.911 2.177-2.911 3.327v14.97c0 1.885.921 3.762 2.739 5.579 1.781 1.782 4.374 2.66 4.483 2.696a.83.83 0 0 0 1.052-.526.832.832 0 0 0-.526-1.052zM21.21 23.29c-1.87 0-2.703 2.004-2.909 3.262l-.832 10.812a.831.831 0 1 0 1.659.128l.822-10.739c.004-.018.357-1.8 1.26-1.8 1.17 0 1.244 1.388 1.247 1.663v14.97c0 1.428-.758 2.91-2.251 4.403-1.5 1.499-3.812 2.286-3.835 2.295a.832.832 0 0 0 .527 1.577c.11-.036 2.702-.914 4.484-2.696 1.817-1.817 2.738-3.694 2.738-5.578V26.616c0-1.15-.608-3.327-2.91-3.327z"/>
        <path d="M47.907 48.407l-9.99-7.492c-.526-.384-1.096-1.744-1.33-2.778l-2.503-16.674c-.181-.908-.352-1.787-.518-2.632-1.484-7.592-2.38-12.176-5.287-12.176-1.75 0-2.495.746-2.495 2.495 0 1.676.8 12.097.834 12.54a.831.831 0 1 0 1.658-.128c-.008-.108-.829-10.8-.829-12.412 0-.831.016-.831.832-.831 1.538 0 2.566 5.26 3.655 10.832.165.846.337 1.727.513 2.598l2.506 16.694c.065.29.676 2.862 1.976 3.81l9.98 7.485a.828.828 0 0 0 1.165-.167.832.832 0 0 0-.167-1.164z"/>
        <path d="M45.425 37.735a.829.829 0 0 0 1.136-.304.831.831 0 0 0-.305-1.137l-5.917-3.417a.831.831 0 1 0-.832 1.441l5.918 3.417zM49.073 24.123h-9.982a.832.832 0 0 0 0 1.663h9.982a.831.831 0 1 0 0-1.663zM25.784.833a.832.832 0 0 0-1.664 0v2.495a.832.832 0 0 0 1.664 0V.833zM21.625 6.655c-2.907 0-3.803 4.583-5.287 12.176-.165.845-.337 1.723-.526 2.672l-2.497 16.653c-.132 1.035-.777 2.411-1.338 2.765l-9.98 7.486a.832.832 0 0 0 .998 1.33l9.922-7.445c1.149-.718 1.901-2.768 2.045-3.91L17.45 21.79c.183-.911.355-1.792.52-2.639 1.09-5.57 2.117-10.832 3.655-10.832.816 0 .832 0 .832.832 0 1.613-.821 12.303-.83 12.412a.831.831 0 1 0 1.659.128c.034-.444.834-10.864.834-12.54 0-1.749-.746-2.495-2.495-2.495z"/>
    </g>
</svg>
