<svg xmlns="http://www.w3.org/2000/svg" xmlns:xlink="http://www.w3.org/1999/xlink" width="24" height="24" viewBox="0 0 24 24">
    <defs>
        <path id="a" d="M22 7h-1V2h3v1h-2v1h2v1h-2v1h2v1h-2zm-4 0h-1V2h3v1h-2v1h2v1h-2v1h2v1h-2zm-8-3h2v1h-2v2H9V2h3v1h-2v1zm4 2v1h-1V2h3v3h-1V4h-1v1h1v1h-1zm-8.38 5.79c1.44 2.83 3.76 5.14 6.59 6.59l2.2-2.2c.27-.27.67-.36 1.02-.24 1.12.37 2.33.57 3.57.57.55 0 1 .45 1 1V21c0 .55-.45 1-1 1C9.61 22 2 14.39 2 5c0-.55.45-1 1-1h3.5c.55 0 1 .45 1 1 0 1.25.2 2.45.57 3.57.11.35.03.74-.25 1.02l-2.2 2.2zM14 4h1V3h-1v1zm1 2h1v1h-1V6z"/>
    </defs>
    <g fill="none" fill-rule="evenodd">
        <mask id="b" fill="#fff">
            <use xlink:href="#a"/>
        </mask>
        <use fill="#6D6E70" xlink:href="#a"/>
        <g fill="#6D6E70" mask="url(#b)">
            <path d="M0 0h24v24H0z"/>
        </g>
    </g>
</svg>
