<svg xmlns="http://www.w3.org/2000/svg" width="36" height="30" viewBox="0 0 36 30">
    <path fill="#00A9E0" fill-rule="evenodd" d="M16 3.327c-1.694.998-3.063 1.858-4.108 2.579-1.045.72-2.108 1.673-3.19 2.856-1.008 1.109-1.783 2.273-2.324 3.493-.54 1.22-.919 2.791-1.135 4.714h2.595c2.234 0 3.99.563 5.27 1.69 1.28 1.128 1.919 2.783 1.919 4.964 0 1.553-.568 3.004-1.703 4.353C12.19 29.326 10.631 30 8.65 30c-3.1 0-5.316-1.044-6.649-3.133-1.333-2.089-2-4.834-2-8.235 0-2.403.504-4.593 1.514-6.571a23.286 23.286 0 0 1 3.675-5.296c1.478-1.59 3.045-2.939 4.703-4.048A181.036 181.036 0 0 1 14.054 0L16 3.327zm20 0c-1.694.998-3.063 1.858-4.108 2.579-1.045.72-2.108 1.673-3.19 2.856-1.044 1.146-1.828 2.32-2.35 3.52-.523 1.202-.893 2.764-1.109 4.687h2.595c2.234 0 3.99.563 5.27 1.69 1.28 1.128 1.919 2.783 1.919 4.964 0 1.553-.568 3.004-1.703 4.353C32.19 29.326 30.631 30 28.65 30c-3.1 0-5.316-1.044-6.649-3.133-1.333-2.089-2-4.834-2-8.235 0-2.403.504-4.593 1.514-6.571a23.286 23.286 0 0 1 3.675-5.296c1.478-1.59 3.045-2.939 4.703-4.048A181.036 181.036 0 0 1 34.054 0L36 3.327z"/>
</svg>
