<svg xmlns="http://www.w3.org/2000/svg" width="16" height="16" viewBox="0 0 16 16">
    <path fill="#FFF" fill-rule="evenodd" d="M8.004 3.132c.494-.902 1.163-1.517 2.003-1.85a3.592 3.592 0 0 1 1.502-.279c.518.024 1.085.083 1.62.37.58.312.98.787 1.276 1.234.3.443.484 1.008.562 1.692.074.681.023 1.276-.148 1.785a7.84 7.84 0 0 1-.642 1.411 6.898 6.898 0 0 1-1.002 1.293 29.32 29.32 0 0 1-1.195 1.13 59.16 59.16 0 0 1-1.207 1.064c-.487.42-.843.74-1.079.965A10.33 10.33 0 0 0 7.994 14a10.167 10.167 0 0 0-1.69-2.056 39.46 39.46 0 0 0-1.079-.962c-.554-.479-.954-.836-1.206-1.064a25.08 25.08 0 0 1-1.196-1.134A6.923 6.923 0 0 1 1.82 7.492 7.88 7.88 0 0 1 1.18 6.08c-.172-.505-.222-1.1-.145-1.784.074-.681.259-1.246.558-1.693.296-.446.605-.816 1.186-1.13a4.282 4.282 0 0 1 1.71-.47c.484-.022.985.07 1.502.275.84.334 1.51.952 2.013 1.854"/>
</svg>
