<svg xmlns="http://www.w3.org/2000/svg" width="320" height="24" viewBox="0 0 320 24">
    <path fill="#FFF" fill-rule="evenodd" d="M311.759 11.126l-94.525-3.879c7.005.234 14.033.47 21.084.703 15.802.74 31.148 1.73 47.135 2.701 5.635.114 11.23.229 16.872.348 3.052.087 6.207.127 9.434.127zm-94.525-3.879c-13.002-.43-25.933-.857-38.823-1.287-4.96-.139-9.912-.345-14.86-.415l-14.829-.151c-9.876-.095-19.738-.184-29.6-.28-39.438-.43-78.844-.863-118.956-1.3 31.016-.403 61.883-.656 92.629-.793l46.028-.127c7.656 0 15.305 0 22.952-.002 7.644.007 15.288.28 22.921.412C245.776 4.65 318 6.832 320 8c-1 2-4.09 3.126-8.241 3.126l-94.525-3.879zM0 24V9.124l16.559-.518c30.562-.969 60.991-1.87 93.115-2.189-4.691-.067-8.1-1.05-13.227-1.1-7.287-.144-14.426-.209-21.472-.206-20.276.002-39.738.534-59.43 1.187-5.16.164-10.336.348-15.545.534V3.486c.99-.11 1.933-.215 2.822-.31L0 3.221V2.98a248.54 248.54 0 0 0 7.612-.27C36.254 1.474 65.529.697 94.832.287 96.28.268 97.724.248 99.17.23c20.46.258 40.921.517 61.552.758 0-.373.54-.703 1.513-.989 6.7.067 13.384.199 20.037.442C228.239 1.556 274.157 2.667 320 3.775V24H0z"/>
</svg>
