<svg xmlns="http://www.w3.org/2000/svg" width="789" height="255" viewBox="0 0 789 255">
    <path fill="#8AC53F" fill-opacity=".15" fill-rule="evenodd" d="M706.956 200.038c-1.44.003-2.57-.464-3.222-1.655 1.44-.003 2.57.464 3.222 1.655M682.42 97.048c-1.065.54-3.092-.987-1.83-1.589.018 1.45 1.84-1.203 1.83 1.59m-13.993-46.346c-.668-.44-2.418.76-2.308-.857.717-1.153 1.911-.458 2.308.857m4.198 48.107c-3.357 1.278-10.581.483-12.063-1.347 3.294-.146 9.073-2.792 12.063 1.347m-13.877 44.962c-1.44.006-2.57-.465-3.222-1.652 1.311.193 3.199-.49 3.222 1.652m-5.094-.998c-.348.596-3.255 1.849-2.77-.885 1.636.334 2.39.162 2.77.885m-1.003-44.952c-.631.205-.906 1.022-1.872.657-.3-2.568 1.832-2.83 1.872-.657m-4.585 45.423c-3.175-1.166-5.742 1.057-7.402-1.86 2.35.794 6.56-1.22 7.402 1.86m1.797-45.56c-2.219.003-7.723 2.032-9.724-1.98 3.39.474 8.096-2.48 9.724 1.98m-15.267 44.893c-.77-.125-4.215.2-2.772-.882.77.128 4.215-.203 2.772.882m-5.605-47.421c.029 2.104-1.18 2.098-2.364 2.129-.169-2.347 1.038-2.341 2.364-2.13m-6.515.425c.702 2.122-2.047 1.973-1.873.657.875.212 1.042-.791 1.873-.657m-7.197 11.619c3.082-2.035 2.807 2.936 0 0m-1.15-12.779c-.014.748-.027 1.496-.043 2.244-1.619-1.271-2.914 1.179-3.686-1.68 1.754-.838 2.395.487 3.729-.564m-7.939 1.855c-1.063.156-1.742-.268-1.83-1.59.82.212 2.341-.635 1.83 1.59m-17.594-52.508c.325-1.617-1.272-2.443.505-2.219 13.9-1.898 22.844 3.422 37.173 1.085 6.369-6.745 15.612-3.276 21.831 1.081 11.123-.729 24.262-2.038 35.285 2.49-8.17-1.121-16.798.153-21.916 3.41-1.878.178-.637-4.36-2.716-3.877-7.269.876-12.407 4.32-18.142.602-1.638-.49-1.191 2.593-2.83 2.107-5.757-1.004-10.625-1.138-16.693-2.326-2.141-.417-5.301-1.094-7.415-1.115-.959-.007-1.832 1.994-2.831 2.107-1.18.13-3.207-2.347-4.614-1.724-5.716 2.515-15.445.333-23.211-1.898 3.562-.178 2.7-2.733 5.574.277m-7.39-2.612c-3.154 4.978-15.527 3.607-18.62 1.325 6.92-.642 12.075.11 18.62-1.325m-20.509 2.73c-1.448-.585-1.897-.009-2.306-.863.328-.56 2.802-1.807 2.306.864m-11.996 141.596c-9.215.626-11.352 8.315-20.522 3.478 1-3.7-.647-2.668-1.293-5.305 8.472.459 14.256-.65 21.815 1.827M458.63 32.857c6.94 1.302 13.925 1.28 20.9 1.034 8.695-.308 17.876 5.115 26.388 5.791 3.467.278 7.065-.794 10.234-.24 2.027.352 3.983 2.257 5.995 2.54 11.888 1.674 21.935-1.499 32.54.11-9.323 5.71-21.711-.424-33.483.595-7.067.604-12.915.614-19.52-.221-8.214-1.035-17.29 1.3-25.084-1.238-4.744-1.546-8.94-6.383-13.356-6.648-2.04-.121-4.376 1.876-6.545 1.926-4.277.088-16.42-3.815-20.35-5.498 5.837-1.343 13.512.2 22.28 1.849M325.038 65.919c-5.235 2.886-14.765 2.518-20.043 2.755 6.263-2.319 12.35-3.488 20.043-2.755m-23.269 74.437c-3.512-.081-8.056 2.157-11.164.2 3.42-.867 8.097-3.214 11.164-.2m-16.287.692c7.499-2.11 2.118 2.178 0 0m3.183-69.441c-4.419-.352-11.27 4.809-13.947.06 4.423-3.912 11.1-4.76 13.947-.06m-9.079 61.668c-1.274 2.325-7.569 3.518-8.36-.415 2.788.137 5.576.277 8.36.415m-11.044 42.858c16.932-1.334 27.904-1.197 43.789-4.573-1.694 3.79-7.267.948-7.125 7.88-1.6-.68-1.807 1.025-3.267.589-.466-1.471-.828-3.102-2.741-2.382-.037 1.11 1.837 3.435-.058 2.99-1.203-1.967-3.06-3.389-2.237-4.6-5.417 2-11.667-1.572-17.241 2.14-3.38-.455-5.68-2.537-9.726-1.976-1.541.496-1.015 3.983-2.83 2.104-.427-3.544 1.713 1.599 1.436-2.172m6.355-138.137c3.063-.18 5.775-3.721 9.36-3.279 7.982.991 14.956-1.823 23.307-3.338-1.448 6.368-5.094 4.208-8.908 4.052-9.366-.386-21.587 4.058-31.235 4.441-.542 1.88 2.12 3.008-.056 2.992-.62-.03-1.24-.062-1.859-.093-.122-1.16.842-2.964-.844-4.532 3.744-1.617 6.746-.034 10.235-.243m-7.598 154.537c.015.05-8.119 1.727-7.896-.39 1.32.72 7.418-1.265 7.896.39m-1.588-14.297c3.762 6.147 12.06 1.83 16.185 4.542-6.575-.113-15.674 6.7-23.28 1.845 1.554-3.52 3.784-5.878 7.095-6.387m8.463 43.825c-9.957.436-26.005 4.005-32.99-.882 10.198-3.276 22.696-1.138 32.99.882m447.585-115.587c-8.448-.069-14.746-4.794-26.882-4.32 1.07-2.543 4.801-.536 5.644-3.466-3.851-.364-5.07-.598-8.823-.436.158 1.455 2.124.171 1.335 3.06-5.545 1.253-10.697-.582-16.707-1.57 2.327-1.976 5.704-.652 7.925-1.107.286-1.645-.868-1.11-.887-2.29 17.627-5.093 39.32-.661 58.016 5.114 1.673-1.082.233 2.553 1.35 2.31 7.535-.231 13.272 1.785 18.086 2.39-7.174-4.105-17.953-6.542-26.768-10.3 4.486-1.207 8.296-1.113 12.091-.154-.162-1.449-1.79-.679-1.336-3.06.324-3.999 3.135.399 4.686-2.014 1.202-3.983-4.405-3.328-4.98-6.978-18.04-5.23-38.077-9.082-59.267-12.66-.077-2.705 2.068-1.608 2.844-2.852-4.561-4.133-11.423-3.004-15.355.739-20.238-2.12-36.674-2.83-58.495-4.389 17.166-7.075 40.529-.716 61.424-2.951 1.673-1.082.232 2.556 1.351 2.313 28.029-1.989 49.021 5.762 73.764 8.134-2.163-5.523-6.599-3.98-10.132-4.993-4.237-1.212-7.987-4.756-11.978-5.828-1.694-.455-3.516.73-5.123.495-3.013-.436-5.77-3.303-8.753-4.173-10.6-3.098-21.618-2.353-32.457-4.597-1.29-3.375 3.013-2.796 4.267-4.28-.629-1.227-1.564-1.99-2.745-2.38 8.966-4.53 20.111-1.001 30.263-2.248 1.105-.134 2.157-2.91 3.28-1.334.158-3.148-2.03-2.736-2.701-4.625-2.417 1.007-5.584.739-7.939 1.852-18.81-6.92-38.561-8.434-60.281-8.216-32.354.327-65.076-5.324-95.697-3.977-5.034.218-10.438-.119-16.734-.078 3.063-2.814 8.608-2.412 12.105-.9 23.83-3.19 60.032 2.433 85.562-1.01 3.373-.459 8.496 4.918 10.711-.97-4.017-.396-6.513-1.558-10.233.243-22.74-4.722-45.9-2.272-69.191-4.167-5.486-.446-11.364.988-16.748.67-2.064-.124-4.432-1.957-6.475-1.817-.61.04-1.274 2.017-1.901 2.15-11.213 2.426-22.513-5.924-33.456-.906-6.544-3.971-17.805-5.517-25.966-3.525 19.997 7.61 38.01 5.064 55.143 9.459-19.211.43-39.764.826-59.41-5.18.296-2.842 2.921-1.69 2.437-5.869-39.727-7.979-74.63-12.872-114.638-10.154-11.575.788-25.535 8.047-38.765 9.31-19.579 1.873-40.958 1.262-60.566 6.738 1.458 3.603 7.458.327 9.712 2.724-2.2 5.672-7.034.689-10.713.97-5.423.414-10.12 4.624-12.289 10.615 1.102 1.477 2.242 2.898 4.6 2.475-1.006 1.62-2.49 2.427-3.336 4.322-5.86-2.5-9.377-8.552-14.169-12.67-5.384-1.944-10.608-2.38-15.722-4.521-4.577-1.914-9.032-4.881-14.314-5.196-9.85-.586-20.353 5.404-29.345 3.039-7.72-2.026-13.03-8.344-20.28-9.232-1.465-.18-3.078 1.33-4.674 1.265-3.53-.143-7.303-3.627-10.695.219-1.745-1.89-4.647-.384-8.349-1.16-1.52-.318-3.135-1.683-4.151-1.702-4.483-.087-9.408 3.332-14.485 3.772-9.079.791-19.116-.561-27.91.87-7.82 1.274-19.589 1.411-28.824.07-2.2-.317-4.235-2.739-6.444-3.312-5.572-1.44-11.503-1.372-16.651-4.566-1.826-1.125-2.581-3.784-5.532-2.515C21.796.704 12.338-2.874 4.059 2.914.426 11.093-.116 19.271.295 29.668c.38 9.65-1.143 16.709.443 25.467.788 4.351 2.012 10.26 2.995 13.62C5.755 75.66 9.93 80.381 10.78 89.31c.777 8.156.416 20.271-.54 28.409-1.644 13.935-6.924 33.433-7.925 49.75-.182 2.97.4 6.04.294 8.994-.296 8.206-2.354 17.407-.948 25.398.503 2.868 3.15 6.982 4.894 11.47 5.724 14.714 13.513 32.255 27.705 34.296 27.25 3.918 59.854 2.067 88.349-.875 5.175-.537 13.88-2.204 23.31-3.338 27.12-3.26 52.027 4.66 77.58 3.082 13.249-.813 26.03 2.683 39.931 2.724 23.574.075 47.836-2.281 71.64-2.447 17.886-.124 35.897 1.313 53.022-1.125 24.15-3.431 50.357-3.87 75.285 1.474 15.428-.589 31.268 1.864 47.348 3.84 52.525 6.446 105.314-1.125 159.397 3.385 14.07 1.172 26.315.564 40.453-.246 3.584-.209 6.973-2.297 10.276-2.487 7.524-.434 15.462 2.029 21.044-6.446 4.659-.517 9.251-1.147 12.624-3.864-2.15-2.996-7.11-4.95-10.581-5.763-11.801-2.762-25.608-.76-38.987-3.422 11.689-3.323 28.032-1.45 40.087-5.505-9.426-3.75-20.568-1.717-28.768-2.917 14.055-2.74 28.911-6.791 41.944-5.41-3.644-2.955-7.885-5.006-12.427-6.602 8.345-3.531 20.626 1.509 26.954.583-1.623-4.703-6-3.628-9.218-4.198-4.982-.88-10.29-1.677-16.679-3.067 5.737-1.047.324-2.004-3.208-2.403 4.114-1.97 8.593-3.31 11.303-7.677-19.917-7.165-43.002-2.733-61.296-3.774 1.071 2.977 2.837 4.903 5.476 5.507-14.723.658-23.945 2.771-37.678 1.132-1.774-.215-2.274-2.366-3.182-3.9-5.489-.517-8.285 1.693-12.54-.616.143.988.794 1.215.886 2.287-10.77 1.138-21.822.228-31.54-3.805-6.318 1.633-15.66 2.886-21.353-1.802.254-2.883.56-2.636-.379-4.51 11.842-4.036 26.84-1.268 40.96-2.465 14.185-1.2 32.861 3.379 50.177 1.733 9.657-.92 18.153 1.493 28.797 1.421 5-.034 10.207-1.985 14.905-1.508 7.578.77 15.121 4.578 22.758 1.125.457-4.08-2.583-2.868-4.587-3.223 5.078-6.551 12.804-2.088 21.437-2.683-5.973-4.878-10.298-.312-16.157-6.034 4.668-3.7 10.217-1.864 15.863-2.961-9.001-10.17-24.001-6.327-36.056-10.76 3.869-.579 7.323-1.872 9.402-5.522 3.762 1.826 8.698-.798 12.063 1.343-25.422-12.816-52.458-7.084-85.785-11.722 11.754-1.499 24.744-1.54 37.186.343 12.82 1.936 28.215.396 41.8 2.066 8.656 1.06 18.027 8.275 23.704.421-5.505-3.855-14.948-1.097-20.307-7.742 2.248-1.945 3.485-2.62 1.52-6.657 11.766-2.64 26.288 6.872 37.988 7.115-5.836-5.036-12.492-4.933-18.93-6.922-18.905-5.834-36.73-15.87-58.744-15.624-.43-2.537 1.465-1.094 2.35-1.38-2.232-.926-10.262-2.94-9.783 1.012-1.708-3.952-8.853-2.714-12.045-2.094.025 1.658 1.96.414 2.77.888-2.536 3.076-7.255.224-10.695.221.089-.872.857-.592 1.407-.68-4.052-3.876-12.44-2.736-19.45-3.954 22.982-4.95 48.882 2.418 72.02 2.06-1.69-9.123-11.9-5.613-15.677-6.763-.132.807-.936.464-.957 1.452-.647-.296-.017-1.318.492-1.474z"/>
</svg>
