<svg xmlns="http://www.w3.org/2000/svg" xmlns:xlink="http://www.w3.org/1999/xlink" width="268" height="24" viewBox="0 0 268 24">
    <defs>
        <path id="a" d="M0 0h268v26H0z"/>
    </defs>
    <g fill="none" fill-rule="evenodd" transform="translate(0 -2)">
        <mask id="b" fill="#fff">
            <use xlink:href="#a"/>
        </mask>
        <path fill="#FEFEFE" d="M335.759 13.126c-3.227 0-6.382-.04-9.434-.127-5.641-.12-11.237-.234-16.872-.348-15.987-.971-31.333-1.96-47.135-2.7-7.051-.234-14.08-.47-21.084-.704m0 0c-13.002-.43-25.933-.857-38.823-1.287-4.96-.139-9.912-.345-14.86-.415l-14.829-.151c-9.876-.095-19.738-.184-29.6-.28-39.438-.43-78.844-.863-118.956-1.3 31.016-.403 61.883-.656 92.629-.793l46.028-.127c7.656 0 15.305 0 22.952-.002 7.644.007 15.288.28 22.921.412 61.08 1.345 121.766 3.046 182.286 4.885 120.979 2.462 241.368 5.391 362.85 6.989-19.275.492-38.793.932-58.744 1.093-8.85.03-17.638.047-26.374.047a8278.21 8278.21 0 0 1-56.984-.21c-45.202-1.25-88.818-3.092-133.358-4.48-44.55-1.414-90.026-2.242-139.022-2.649 18.963.31 36.275.954 52.61 1.804 16.327.69 31.678 1.57 46.723 2.534-15.037-.32-30.046-.639-45.053-.962-15.014-.472-30.028-.941-45.078-1.416-4.361.12-8.642.187-12.793.187M904 26V15.65c0-.07-12.825-1.18-28.513-1.183-10.062 0-20.171.105-30.355.274-4.397-.182-16.583.335-21.304.437-4.851-.12-9.702-.239-14.553-.348.372.04.745.082 1.117.124-2.28-.087-4.567-.171-6.858-.26C708.738 12.47 613.086 10.723 516.926 9c-25.758-.43-51.55-.86-77.377-1.287-25.823-.397-51.68-.743-77.584-1.505-51.81-1.252-103.72-2.507-155.694-3.767A754.723 754.723 0 0 0 186.234 2c-.974.286-1.513.616-1.513.989-20.63-.241-41.091-.5-61.552-.758-1.445.017-2.89.037-4.337.055-29.303.41-58.578 1.187-87.22 2.425-5.48.288-11.975.372-18.912.375-5.398 0-11.063-.055-16.725-.1l-9.659-.094c-3.188-.072-6.323-.144-9.36-.211a481.616 481.616 0 0 0-8.49-.085c-2.879 0-5.604.033-8.11.112-87.829 1.66-180.488-1.063-261.451 4.634l-31.08.179c7.715.412 15.941.559 23.79.559 4.558 0 8.99-.05 13.119-.127 1.333.032 2.527.104 3.396.226 3.467-.241 5.165-.36 6.891-.482 9.512.345 20.286.492 32.01.492 59.72.01 143.998-3.77 211.128-4.348 2.154-.012 4.31-.017 6.465-.017 4.668 0 9.33.02 13.988.02 4.655 0 9.309-.02 13.957-.107 11.445-.187 22.86-.373 34.253-.562-7.96.857-20.309 2.41-30.545 2.803l-9.31.243c-3.117.015-6.25.028-9.395.045-6.29.02-12.626.037-18.988.055-12.72.047-25.527.094-38.224.134-25.39.144-50.327.447-73.193 1.262 22.106.658 43.172 1.84 66.646 1.836 14.013-.005 28.343-1.622 39.482-1.617 7.575.124 12.173.163 16.71.163 24.49 0 47.158-1.09 69.54-1.8 19.692-.654 39.154-1.186 59.43-1.188 7.046-.003 14.185.062 21.472.206 5.127.05 8.536 1.033 13.227 1.1-32.124.318-62.553 1.22-93.115 2.19l-47.007 1.468c-10.414.27-20.942.315-31.66.315-4.59 0-9.218-.007-13.886-.007a3863.28 3863.28 0 0 1-31.316-.84c-9.44.395-18.177.656-25.712.678-2.77-.022-5.454-.027-8.06-.027-68.316.005-83.809 5.757-145.533 5.764-4.846 0-9.978-.037-15.44-.112 17.853-.005 40.944-1.31 62.606-2.88 21.66-1.291 41.885-2.899 54.01-3.903-46.647.323-140.498 2.99-195.15 3.459-66.634.69-57.601-.313-115.942 2.52-8.694.295-63.469.02-63.469.02s47.794 3.453 70.675 3.301c73.281-3.652 167.61-1.88 183.438-2.07 2.302.269-17.664 2.09-53.113 3.707-21.463.949-201-2.938-201-2.938V26" mask="url(#b)"/>
    </g>
</svg>
