<svg xmlns="http://www.w3.org/2000/svg" width="32" height="32" viewBox="0 0 32 32">
    <g fill="none" fill-rule="evenodd">
        <path fill="#A7A8A9" d="M16 32c8.838 0 16-7.165 16-16 0-8.836-7.162-16-16-16C7.164 0 0 7.164 0 16c0 8.835 7.164 16 16 16"/>
        <path fill="#FFFFFE" d="M23.779 22.06h-3.437v-5.019c0-1.313-.538-2.21-1.72-2.21-.904 0-1.407.605-1.641 1.188-.088.21-.074.501-.074.793v5.249h-3.405s.044-8.892 0-9.7h3.405v1.522c.201-.665 1.29-1.615 3.025-1.615 2.154 0 3.847 1.395 3.847 4.4v5.393zm-13.72-10.912h-.022c-1.097 0-1.808-.742-1.808-1.681 0-.959.732-1.685 1.851-1.685 1.118 0 1.806.725 1.828 1.682 0 .94-.71 1.684-1.849 1.684zM8.621 22.06h3.03v-9.7h-3.03v9.7z"/>
    </g>
</svg>
