<svg xmlns="http://www.w3.org/2000/svg" width="32" height="32" viewBox="0 0 32 32">
    <g fill="none" fill-rule="evenodd">
        <path fill="#A7A8A9" d="M16 32c8.837 0 16-7.163 16-16 0-8.836-7.163-16-16-16C7.164 0 0 7.164 0 16c0 8.837 7.164 16 16 16"/>
        <path fill="#FFFFFE" d="M23.577 11.499a6.365 6.365 0 0 1-1.835.502 3.202 3.202 0 0 0 1.405-1.767 6.39 6.39 0 0 1-2.03.774 3.196 3.196 0 0 0-5.445 2.915 9.07 9.07 0 0 1-6.588-3.34 3.191 3.191 0 0 0-.432 1.609c0 1.108.564 2.086 1.422 2.66a3.198 3.198 0 0 1-1.449-.4v.04a3.196 3.196 0 0 0 2.565 3.133 3.18 3.18 0 0 1-1.444.056 3.197 3.197 0 0 0 2.985 2.218 6.41 6.41 0 0 1-3.968 1.369c-.258 0-.513-.015-.763-.044a9.06 9.06 0 0 0 4.899 1.434c5.879 0 9.092-4.868 9.092-9.091 0-.14-.002-.278-.008-.415a6.465 6.465 0 0 0 1.594-1.653"/>
    </g>
</svg>
