<svg xmlns="http://www.w3.org/2000/svg" xmlns:xlink="http://www.w3.org/1999/xlink" width="368" height="19" viewBox="0 0 368 19">
    <defs>
        <path id="a" d="M0 0h368v20H0z"/>
    </defs>
    <g fill="none" fill-rule="evenodd" transform="translate(0 -1)">
        <mask id="b" fill="#fff">
            <use xlink:href="#a"/>
        </mask>
        <path fill="#FEFEFE" d="M461.042 11.78c-4.43 0-8.763-.036-12.954-.114-7.746-.107-15.43-.21-23.167-.312-21.953-.872-43.025-1.76-64.723-2.424-9.682-.21-19.333-.422-28.952-.631m0 0c-17.853-.386-35.608-.77-53.308-1.155-6.811-.125-13.611-.31-20.405-.372l-20.362-.136c-13.562-.085-27.103-.165-40.644-.252L33.183 5.217c42.59-.36 84.974-.588 127.192-.71l63.203-.115c10.513 0 21.016 0 31.516-.002 10.496.007 20.992.252 31.474.37 83.872 1.207 167.2 2.734 250.302 4.384 166.121 2.21 331.431 4.838 498.241 6.272-26.466.441-53.267.836-80.662.981-12.153.027-24.219.042-36.215.042-26.39-.002-52.435-.07-78.247-.19-62.068-1.12-121.958-2.773-183.118-4.02-61.174-1.268-123.618-2.01-190.896-2.376 26.038.279 49.811.856 72.24 1.619 22.42.62 43.499 1.409 64.157 2.274-20.648-.288-41.257-.573-61.863-.863-20.616-.424-41.233-.845-61.898-1.27-5.989.106-11.867.166-17.567.166m780.271 11.554v-9.288c0-.063-17.61-1.06-39.151-1.062-13.817 0-27.699.094-41.682.246-6.038-.163-22.77.3-29.254.392-6.661-.107-13.322-.214-19.983-.312.512.036 1.023.074 1.535.111-3.132-.078-6.272-.153-9.418-.234C973.193 11.191 841.85 9.623 709.81 8.078c-35.369-.386-70.786-.771-106.249-1.155-35.459-.357-70.963-.667-106.534-1.351-71.14-1.124-142.421-2.25-213.788-3.38-9.136-.219-18.313-.337-27.514-.397-1.337.256-2.078.553-2.078.887-28.328-.216-56.423-.448-84.519-.68l-5.954.05c-40.237.367-80.436 1.065-119.766 2.175-7.524.26-16.443.335-25.968.337-7.413 0-15.191-.049-22.966-.089-4.447-.029-8.892-.058-13.263-.085-4.378-.064-8.683-.13-12.852-.19-4.033-.048-7.941-.073-11.658-.075-3.954 0-7.695.029-11.137.1-120.6 1.49-247.834-.954-359.007 4.159l-42.677.16c10.593.37 21.89.502 32.668.502 6.257 0 12.344-.045 18.013-.114 1.83.03 3.47.094 4.663.203 4.761-.216 7.093-.323 9.463-.433 13.06.31 27.855.442 43.954.442 82.003.009 197.728-3.383 289.906-3.902 2.958-.011 5.92-.016 8.878-.016 6.41 0 12.81.018 19.207.018 6.393 0 12.782-.018 19.165-.096 15.716-.167 31.39-.334 47.034-.504-10.931.77-27.886 2.163-41.943 2.515l-12.782.219c-4.28.013-8.582.025-12.901.04-8.638.018-17.338.034-26.073.05-17.467.042-35.052.084-52.488.12-34.864.129-69.105.4-100.503 1.132 30.354.591 59.281 1.652 91.514 1.648 19.242-.004 38.918-1.456 54.214-1.452 10.402.112 16.715.148 22.944.148 33.629 0 64.755-.98 95.488-1.617 27.041-.586 53.765-1.063 81.606-1.066 9.675-.002 19.478.056 29.484.185 7.04.045 11.72.928 18.163.988-44.111.286-85.894 1.095-127.86 1.965-21.358.437-42.768.874-64.547 1.317-14.3.243-28.756.283-43.474.283-6.302 0-12.657-.006-19.067-.006a8111.6 8111.6 0 0 1-43.001-.754c-12.963.355-24.96.589-35.306.609-3.804-.02-7.49-.025-11.067-.025-93.807.005-115.081 5.166-199.836 5.173-6.654 0-13.702-.033-21.201-.1 24.514-.005 56.221-1.175 85.966-2.584 29.741-1.16 57.513-2.602 74.162-3.503-64.052.29-192.922 2.682-267.967 3.103-91.497.62-79.094-.28-159.203 2.261-11.938.266-87.152.02-87.152.02s65.627 3.097 97.046 2.961c100.625-3.277 230.152-1.687 251.886-1.857 3.16.241-24.255 1.875-72.932 3.327-29.472.851-276-2.637-276-2.637v6.226" mask="url(#b)"/>
    </g>
</svg>
