<svg xmlns="http://www.w3.org/2000/svg" xmlns:xlink="http://www.w3.org/1999/xlink" width="133" height="12" viewBox="0 0 133 12">
    <defs>
        <path id="a" d="M0 0h133v13H0z"/>
    </defs>
    <g fill="none" fill-rule="evenodd" transform="translate(0 -1)">
        <mask id="b" fill="#fff">
            <use xlink:href="#a"/>
        </mask>
        <path fill="#FEFEFE" d="M166.852 7.026a151.2 151.2 0 0 1-4.684-.068c-2.8-.065-5.58-.127-8.377-.189-7.938-.526-15.558-1.061-23.404-1.463-3.501-.126-6.99-.254-10.469-.38m0 0l-19.276-.697c-2.463-.076-4.922-.188-7.379-.225L85.9 3.922c-4.904-.051-9.8-.1-14.697-.152l-59.065-.704c15.4-.218 30.727-.356 45.993-.43l22.854-.068c3.802 0 7.6 0 11.396-.002 3.796.005 7.591.153 11.381.224 30.329.728 60.46 1.65 90.51 2.646 60.07 1.333 119.846 2.92 180.165 3.785-9.57.267-19.261.505-29.168.592-4.394.017-8.757.026-13.095.026a3767.85 3767.85 0 0 1-28.294-.114c-22.444-.677-44.1-1.674-66.216-2.427-22.12-.766-44.7-1.214-69.028-1.434a667.89 667.89 0 0 1 26.122.977c8.107.374 15.729.85 23.199 1.372l-22.37-.52c-7.455-.256-14.91-.51-22.382-.768-2.166.065-4.291.101-6.353.101M449 14V8.394c0-.038-6.368-.64-14.157-.64-4.996 0-10.016.056-15.073.147-2.183-.098-8.233.182-10.578.237-2.408-.065-4.817-.13-7.226-.188.185.021.37.044.555.067l-3.405-.141c-47.069-1.205-94.563-2.151-142.309-3.084l-38.42-.697c-12.822-.215-25.66-.402-38.523-.815-25.724-.679-51.5-1.358-77.306-2.04A343.563 343.563 0 0 0 92.61 1c-.483.155-.751.334-.751.536-10.244-.13-20.403-.27-30.562-.41l-2.153.029c-14.55.222-29.086.643-43.308 1.313-2.72.156-5.946.202-9.39.203-2.68 0-5.493-.03-8.305-.053l-4.795-.052-4.648-.114c-1.458-.03-2.872-.044-4.216-.046-1.43 0-2.782.018-4.026.06-43.61.9-89.618-.575-129.818 2.51l-15.432.098c3.83.223 7.915.302 11.812.302 2.263 0 4.464-.026 6.514-.068.662.017 1.255.056 1.686.122l3.422-.26c4.723.186 10.072.266 15.894.266 29.652.005 71.499-2.042 104.83-2.355 1.07-.007 2.141-.01 3.21-.01 2.319 0 4.633.01 6.946.01 2.312 0 4.622-.01 6.93-.057 5.683-.1 11.351-.202 17.008-.304C9.504 3.184 3.373 4.025-1.71 4.238l-4.622.132-4.665.024-9.428.03c-6.316.025-12.675.05-18.98.072-12.607.078-24.988.243-36.342.684 10.976.357 21.436.997 33.092.995 6.958-.003 14.073-.88 19.604-.877 3.761.068 6.044.09 8.296.09 12.16 0 23.416-.592 34.529-.976 9.778-.354 19.441-.642 29.509-.644 3.498-.001 7.043.034 10.661.112 2.546.027 4.239.56 6.568.596-15.95.172-31.06.66-46.235 1.186l-23.34.795c-5.17.147-10.398.171-15.72.171-2.279 0-4.577-.004-6.895-.004-6.85-.17-11.075-.308-15.549-.455-4.688.214-9.025.355-12.767.368a451.928 451.928 0 0 0-4.001-.015c-33.921.002-41.614 3.118-72.262 3.122-2.406 0-4.954-.02-7.666-.06 8.864-.003 20.33-.71 31.086-1.56 10.754-.7 20.796-1.57 26.817-2.115-23.162.175-69.761 1.62-96.898 1.874-33.085.374-28.6-.17-57.568 1.364-4.317.16-31.514.012-31.514.012s23.731 1.87 35.092 1.788c36.386-1.979 83.223-1.02 91.082-1.121 1.143.145-8.77 1.131-26.372 2.007-10.657.514-99.802-1.591-99.802-1.591V14" mask="url(#b)"/>
    </g>
</svg>
